<svg xmlns="http://www.w3.org/2000/svg" viewBox="0 0 750 500"><g id="freepik--background-simple--inject-2"><path d="M67.33,423.63l.46.26H728.36a20,20,0,0,0,5-9.22c5-19.75-2.28-42.37-15.19-57.6-5.84-6.89-13.06-12.73-17.5-20.59-6.86-12.16-5.95-27-6.5-40.94-1.66-42.61-18-78.4-43.56-107.75-17.43-20-39.12-37.09-63.28-51.25-19.13-11.22-39.63-20.31-61.15-25.8C386.3,75.06,278,103.35,237.38,138.06s-13.29,47.27-91.58,90.85c-30.57,17-66.81,29-94.46,50.72C22.62,302.19,14,343.25,26.76,376.85,34.51,397.22,49.11,412.27,67.33,423.63Z" style="fill:#FFD580"></path><path d="M67.33,423.63l.46.26H728.36a20,20,0,0,0,5-9.22c5-19.75-2.28-42.37-15.19-57.6-5.84-6.89-13.06-12.73-17.5-20.59-6.86-12.16-5.95-27-6.5-40.94-1.66-42.61-18-78.4-43.56-107.75-17.43-20-39.12-37.09-63.28-51.25-19.13-11.22-39.63-20.31-61.15-25.8C386.3,75.06,278,103.35,237.38,138.06s-13.29,47.27-91.58,90.85c-30.57,17-66.81,29-94.46,50.72C22.62,302.19,14,343.25,26.76,376.85,34.51,397.22,49.11,412.27,67.33,423.63Z" style="fill:#fff;opacity:0.7000000000000001"></path></g><g id="freepik--Clouds--inject-2"><path d="M477.68,81.18c-7.4-8.44-17.43-13.87-29.13-13.44-17.44.65-21.32,11-24.55,16.8s-.65,7.75-14.21,4.52-17.44-1.29-20,3.88,4.53,7.75-10.33,5.81-16.8-3.23-21.32.65a42.33,42.33,0,0,0-7.1,7.75h151.8s3.87-8.39-5.16-11.63c-8.1-2.9-11.77-3.31-16.93-10.51C479.77,83.68,478.75,82.4,477.68,81.18Z" style="fill:none;stroke:#263238;stroke-linecap:round;stroke-linejoin:round"></path><path d="M364.59,127.34c-4-4.56-9.43-7.49-15.76-7.26-9.43.35-11.52,5.94-13.27,9.08s-.35,4.19-7.68,2.44-9.43-.69-10.83,2.1,2.45,4.19-5.59,3.14-9.08-1.74-11.52.35a22.93,22.93,0,0,0-3.84,4.19h82.07s2.09-4.53-2.79-6.28c-4.38-1.57-6.36-1.79-9.15-5.68C365.71,128.69,365.16,128,364.59,127.34Z" style="fill:none;stroke:#263238;stroke-linecap:round;stroke-linejoin:round"></path><path d="M156.77,125.41a14.53,14.53,0,0,0-11.57-5.33c-6.92.25-8.46,4.35-9.74,6.66s-.26,3.08-5.64,1.8-6.93-.52-7.95,1.54,1.79,3.07-4.1,2.3-6.67-1.28-8.47.26a17.14,17.14,0,0,0-2.82,3.08h60.26a3.28,3.28,0,0,0-2.05-4.62c-3.21-1.15-4.67-1.31-6.72-4.17C157.59,126.4,157.19,125.89,156.77,125.41Z" style="fill:none;stroke:#263238;stroke-linecap:round;stroke-linejoin:round"></path></g><g id="freepik--Lights--inject-2"><polyline points="256.06 172.57 256.06 78.8 249.7 78.8 249.7 172.57" style="fill:none;stroke:#263238;stroke-linecap:round;stroke-linejoin:round"></polyline><line x1="212.34" y1="87.87" x2="249.15" y2="87.87" style="fill:none;stroke:#263238;stroke-linecap:round;stroke-linejoin:round"></line><line x1="256.96" y1="87.87" x2="293.77" y2="87.87" style="fill:none;stroke:#263238;stroke-linecap:round;stroke-linejoin:round"></line><line x1="212.34" y1="99.62" x2="249.15" y2="99.62" style="fill:none;stroke:#263238;stroke-linecap:round;stroke-linejoin:round"></line><line x1="256.96" y1="99.62" x2="293.77" y2="99.62" style="fill:none;stroke:#263238;stroke-linecap:round;stroke-linejoin:round"></line><line x1="212.34" y1="111.36" x2="249.15" y2="111.36" style="fill:none;stroke:#263238;stroke-linecap:round;stroke-linejoin:round"></line><line x1="256.96" y1="111.36" x2="293.77" y2="111.36" style="fill:none;stroke:#263238;stroke-linecap:round;stroke-linejoin:round"></line><line x1="212.34" y1="123.1" x2="249.15" y2="123.1" style="fill:none;stroke:#263238;stroke-linecap:round;stroke-linejoin:round"></line><line x1="256.96" y1="123.1" x2="293.77" y2="123.1" style="fill:none;stroke:#263238;stroke-linecap:round;stroke-linejoin:round"></line><circle cx="217.28" cy="93.62" r="3.69" style="fill:none;stroke:#263238;stroke-linecap:round;stroke-linejoin:round"></circle><circle cx="226.67" cy="93.62" r="3.69" style="fill:none;stroke:#263238;stroke-linecap:round;stroke-linejoin:round"></circle><path d="M239.76,93.62a3.7,3.7,0,1,0-3.7,3.69A3.7,3.7,0,0,0,239.76,93.62Z" style="fill:none;stroke:#263238;stroke-linecap:round;stroke-linejoin:round"></path><circle cx="245.46" cy="93.62" r="3.69" style="fill:none;stroke:#263238;stroke-linecap:round;stroke-linejoin:round"></circle><circle cx="260.89" cy="93.62" r="3.69" style="fill:none;stroke:#263238;stroke-linecap:round;stroke-linejoin:round"></circle><path d="M274,93.62a3.69,3.69,0,1,0-3.69,3.69A3.69,3.69,0,0,0,274,93.62Z" style="fill:none;stroke:#263238;stroke-linecap:round;stroke-linejoin:round"></path><circle cx="279.68" cy="93.62" r="3.69" style="fill:none;stroke:#263238;stroke-linecap:round;stroke-linejoin:round"></circle><circle cx="289.08" cy="93.62" r="3.69" style="fill:none;stroke:#263238;stroke-linecap:round;stroke-linejoin:round"></circle><circle cx="217.28" cy="105.7" r="3.69" style="fill:none;stroke:#263238;stroke-linecap:round;stroke-linejoin:round"></circle><circle cx="226.67" cy="105.7" r="3.69" style="fill:none;stroke:#263238;stroke-linecap:round;stroke-linejoin:round"></circle><path d="M239.76,105.7a3.7,3.7,0,1,0-3.7,3.69A3.7,3.7,0,0,0,239.76,105.7Z" style="fill:none;stroke:#263238;stroke-linecap:round;stroke-linejoin:round"></path><circle cx="245.46" cy="105.7" r="3.69" style="fill:none;stroke:#263238;stroke-linecap:round;stroke-linejoin:round"></circle><circle cx="260.89" cy="105.7" r="3.69" style="fill:none;stroke:#263238;stroke-linecap:round;stroke-linejoin:round"></circle><path d="M274,105.7a3.69,3.69,0,1,0-3.69,3.69A3.69,3.69,0,0,0,274,105.7Z" style="fill:none;stroke:#263238;stroke-linecap:round;stroke-linejoin:round"></path><circle cx="279.68" cy="105.7" r="3.69" style="fill:none;stroke:#263238;stroke-linecap:round;stroke-linejoin:round"></circle><circle cx="289.08" cy="105.7" r="3.69" style="fill:none;stroke:#263238;stroke-linecap:round;stroke-linejoin:round"></circle><circle cx="217.28" cy="117.78" r="3.69" style="fill:none;stroke:#263238;stroke-linecap:round;stroke-linejoin:round"></circle><circle cx="226.67" cy="117.78" r="3.69" style="fill:none;stroke:#263238;stroke-linecap:round;stroke-linejoin:round"></circle><path d="M239.76,117.78a3.7,3.7,0,1,0-3.7,3.69A3.7,3.7,0,0,0,239.76,117.78Z" style="fill:none;stroke:#263238;stroke-linecap:round;stroke-linejoin:round"></path><circle cx="245.46" cy="117.78" r="3.69" style="fill:none;stroke:#263238;stroke-linecap:round;stroke-linejoin:round"></circle><circle cx="260.89" cy="117.78" r="3.69" style="fill:none;stroke:#263238;stroke-linecap:round;stroke-linejoin:round"></circle><path d="M274,117.78a3.69,3.69,0,1,0-3.69,3.69A3.7,3.7,0,0,0,274,117.78Z" style="fill:none;stroke:#263238;stroke-linecap:round;stroke-linejoin:round"></path><circle cx="279.68" cy="117.78" r="3.69" style="fill:none;stroke:#263238;stroke-linecap:round;stroke-linejoin:round"></circle><circle cx="289.08" cy="117.78" r="3.69" style="fill:none;stroke:#263238;stroke-linecap:round;stroke-linejoin:round"></circle><circle cx="217.28" cy="129.85" r="3.69" style="fill:none;stroke:#263238;stroke-linecap:round;stroke-linejoin:round"></circle><circle cx="226.67" cy="129.85" r="3.69" style="fill:none;stroke:#263238;stroke-linecap:round;stroke-linejoin:round"></circle><circle cx="279.68" cy="129.85" r="3.69" style="fill:none;stroke:#263238;stroke-linecap:round;stroke-linejoin:round"></circle><circle cx="289.08" cy="129.85" r="3.69" style="fill:none;stroke:#263238;stroke-linecap:round;stroke-linejoin:round"></circle><polyline points="587.56 172.57 587.56 78.8 581.21 78.8 581.21 172.57" style="fill:none;stroke:#263238;stroke-linecap:round;stroke-linejoin:round"></polyline><line x1="543.85" y1="87.87" x2="580.66" y2="87.87" style="fill:none;stroke:#263238;stroke-linecap:round;stroke-linejoin:round"></line><line x1="588.47" y1="87.87" x2="625.28" y2="87.87" style="fill:none;stroke:#263238;stroke-linecap:round;stroke-linejoin:round"></line><line x1="543.85" y1="99.62" x2="580.66" y2="99.62" style="fill:none;stroke:#263238;stroke-linecap:round;stroke-linejoin:round"></line><line x1="588.47" y1="99.62" x2="625.28" y2="99.62" style="fill:none;stroke:#263238;stroke-linecap:round;stroke-linejoin:round"></line><line x1="543.85" y1="111.36" x2="580.66" y2="111.36" style="fill:none;stroke:#263238;stroke-linecap:round;stroke-linejoin:round"></line><line x1="588.47" y1="111.36" x2="625.28" y2="111.36" style="fill:none;stroke:#263238;stroke-linecap:round;stroke-linejoin:round"></line><line x1="543.85" y1="123.1" x2="580.66" y2="123.1" style="fill:none;stroke:#263238;stroke-linecap:round;stroke-linejoin:round"></line><line x1="588.47" y1="123.1" x2="625.28" y2="123.1" style="fill:none;stroke:#263238;stroke-linecap:round;stroke-linejoin:round"></line><circle cx="548.78" cy="93.62" r="3.69" style="fill:none;stroke:#263238;stroke-linecap:round;stroke-linejoin:round"></circle><path d="M561.87,93.62a3.69,3.69,0,1,0-3.69,3.69A3.69,3.69,0,0,0,561.87,93.62Z" style="fill:none;stroke:#263238;stroke-linecap:round;stroke-linejoin:round"></path><circle cx="567.57" cy="93.62" r="3.69" style="fill:none;stroke:#263238;stroke-linecap:round;stroke-linejoin:round"></circle><circle cx="576.97" cy="93.62" r="3.69" style="fill:none;stroke:#263238;stroke-linecap:round;stroke-linejoin:round"></circle><path d="M596.09,93.62a3.69,3.69,0,1,0-3.69,3.69A3.69,3.69,0,0,0,596.09,93.62Z" style="fill:none;stroke:#263238;stroke-linecap:round;stroke-linejoin:round"></path><circle cx="601.79" cy="93.62" r="3.69" style="fill:none;stroke:#263238;stroke-linecap:round;stroke-linejoin:round"></circle><circle cx="611.19" cy="93.62" r="3.69" style="fill:none;stroke:#263238;stroke-linecap:round;stroke-linejoin:round"></circle><path d="M624.27,93.62a3.69,3.69,0,1,0-3.69,3.69A3.69,3.69,0,0,0,624.27,93.62Z" style="fill:none;stroke:#263238;stroke-linecap:round;stroke-linejoin:round"></path><circle cx="548.78" cy="105.7" r="3.69" style="fill:none;stroke:#263238;stroke-linecap:round;stroke-linejoin:round"></circle><path d="M561.87,105.7a3.69,3.69,0,1,0-3.69,3.69A3.69,3.69,0,0,0,561.87,105.7Z" style="fill:none;stroke:#263238;stroke-linecap:round;stroke-linejoin:round"></path><circle cx="567.57" cy="105.7" r="3.69" style="fill:none;stroke:#263238;stroke-linecap:round;stroke-linejoin:round"></circle><circle cx="576.97" cy="105.7" r="3.69" style="fill:none;stroke:#263238;stroke-linecap:round;stroke-linejoin:round"></circle><path d="M596.09,105.7a3.69,3.69,0,1,0-3.69,3.69A3.69,3.69,0,0,0,596.09,105.7Z" style="fill:none;stroke:#263238;stroke-linecap:round;stroke-linejoin:round"></path><circle cx="601.79" cy="105.7" r="3.69" style="fill:none;stroke:#263238;stroke-linecap:round;stroke-linejoin:round"></circle><circle cx="611.19" cy="105.7" r="3.69" style="fill:none;stroke:#263238;stroke-linecap:round;stroke-linejoin:round"></circle><path d="M624.27,105.7a3.69,3.69,0,1,0-3.69,3.69A3.69,3.69,0,0,0,624.27,105.7Z" style="fill:none;stroke:#263238;stroke-linecap:round;stroke-linejoin:round"></path><circle cx="548.78" cy="117.78" r="3.69" style="fill:none;stroke:#263238;stroke-linecap:round;stroke-linejoin:round"></circle><path d="M561.87,117.78a3.69,3.69,0,1,0-3.69,3.69A3.7,3.7,0,0,0,561.87,117.78Z" style="fill:none;stroke:#263238;stroke-linecap:round;stroke-linejoin:round"></path><circle cx="567.57" cy="117.78" r="3.69" style="fill:none;stroke:#263238;stroke-linecap:round;stroke-linejoin:round"></circle><circle cx="576.97" cy="117.78" r="3.69" style="fill:none;stroke:#263238;stroke-linecap:round;stroke-linejoin:round"></circle><path d="M596.09,117.78a3.69,3.69,0,1,0-3.69,3.69A3.7,3.7,0,0,0,596.09,117.78Z" style="fill:none;stroke:#263238;stroke-linecap:round;stroke-linejoin:round"></path><circle cx="601.79" cy="117.78" r="3.69" style="fill:none;stroke:#263238;stroke-linecap:round;stroke-linejoin:round"></circle><circle cx="611.19" cy="117.78" r="3.69" style="fill:none;stroke:#263238;stroke-linecap:round;stroke-linejoin:round"></circle><path d="M624.27,117.78a3.69,3.69,0,1,0-3.69,3.69A3.7,3.7,0,0,0,624.27,117.78Z" style="fill:none;stroke:#263238;stroke-linecap:round;stroke-linejoin:round"></path><circle cx="548.78" cy="129.85" r="3.69" style="fill:none;stroke:#263238;stroke-linecap:round;stroke-linejoin:round"></circle><path d="M561.87,129.85a3.69,3.69,0,1,0-3.69,3.69A3.69,3.69,0,0,0,561.87,129.85Z" style="fill:none;stroke:#263238;stroke-linecap:round;stroke-linejoin:round"></path><circle cx="611.19" cy="129.85" r="3.69" style="fill:none;stroke:#263238;stroke-linecap:round;stroke-linejoin:round"></circle><path d="M624.27,129.85a3.69,3.69,0,1,0-3.69,3.69A3.69,3.69,0,0,0,624.27,129.85Z" style="fill:none;stroke:#263238;stroke-linecap:round;stroke-linejoin:round"></path></g><g id="freepik--Crowd--inject-2"><path d="M594.85,223.13a4.43,4.43,0,1,0-4.43,4.43A4.43,4.43,0,0,0,594.85,223.13Z" style="opacity:0.1"></path><path d="M493.67,223.13a4.43,4.43,0,1,0-4.43,4.43A4.44,4.44,0,0,0,493.67,223.13Z" style="opacity:0.1"></path><path d="M642.86,219.44a4.43,4.43,0,1,0-4.43,4.43A4.43,4.43,0,0,0,642.86,219.44Z" style="opacity:0.30000000000000004"></path><circle cx="526.9" cy="223.13" r="4.43" style="opacity:0.30000000000000004"></circle><path d="M501.05,198.76a4.43,4.43,0,1,0-4.43,4.43A4.43,4.43,0,0,0,501.05,198.76Z" style="opacity:0.30000000000000004"></path><path d="M493.67,211.32a4.43,4.43,0,1,0-4.43,4.43A4.44,4.44,0,0,0,493.67,211.32Z" style="opacity:0.30000000000000004"></path><path d="M436.06,209.1a4.43,4.43,0,1,0-4.43,4.43A4.43,4.43,0,0,0,436.06,209.1Z" style="opacity:0.30000000000000004"></path><path d="M382.14,197.28a4.43,4.43,0,1,0-4.43,4.43A4.43,4.43,0,0,0,382.14,197.28Z" style="opacity:0.30000000000000004"></path><path d="M665,223.87a4.44,4.44,0,1,0-4.43,4.43A4.43,4.43,0,0,0,665,223.87Z" style="opacity:0.1"></path><path d="M441.23,225.35a4.43,4.43,0,1,0-4.43,4.43A4.43,4.43,0,0,0,441.23,225.35Z" style="opacity:0.1"></path><circle cx="292.78" cy="233.47" r="4.43" style="opacity:0.1"></circle><path d="M274.31,195.81a4.43,4.43,0,1,0-4.43,4.43A4.43,4.43,0,0,0,274.31,195.81Z" style="opacity:0.1"></path><path d="M651.68,211.31a4.43,4.43,0,1,0-4.43,4.43A4.43,4.43,0,0,0,651.68,211.31Z" style="opacity:0.30000000000000004"></path><path d="M473.73,195.81a4.44,4.44,0,1,0-4.43,4.43A4.44,4.44,0,0,0,473.73,195.81Z" style="opacity:0.30000000000000004"></path><path d="M633.26,203.19a4.43,4.43,0,1,0-4.43,4.43A4.43,4.43,0,0,0,633.26,203.19Z" style="opacity:0.1"></path><path d="M628.09,220.92a4.43,4.43,0,1,0-4.43,4.43A4.43,4.43,0,0,0,628.09,220.92Z" style="opacity:0.30000000000000004"></path><path d="M597.81,207.62a4.44,4.44,0,1,0-4.43,4.43A4.44,4.44,0,0,0,597.81,207.62Z" style="opacity:0.30000000000000004"></path><circle cx="579.34" cy="201.71" r="4.43" style="opacity:0.30000000000000004"></circle><path d="M515.09,207.62a4.44,4.44,0,1,0-4.43,4.43A4.44,4.44,0,0,0,515.09,207.62Z" style="opacity:0.1"></path><path d="M423.5,206.88a4.43,4.43,0,1,0-4.43,4.44A4.43,4.43,0,0,0,423.5,206.88Z" style="opacity:0.30000000000000004"></path><circle cx="353.34" cy="232.73" r="4.43" style="opacity:0.30000000000000004"></circle><path d="M395.44,203.93a4.43,4.43,0,1,0-4.43,4.43A4.43,4.43,0,0,0,395.44,203.93Z" style="opacity:0.30000000000000004"></path><path d="M235.91,197.28a4.44,4.44,0,1,0-4.43,4.43A4.44,4.44,0,0,0,235.91,197.28Z" style="opacity:0.30000000000000004"></path><path d="M566.79,207.62a4.44,4.44,0,1,0-4.43,4.43A4.44,4.44,0,0,0,566.79,207.62Z" style="opacity:0.1"></path><path d="M569,195.81a4.43,4.43,0,1,0-4.43,4.43A4.43,4.43,0,0,0,569,195.81Z" style="opacity:0.1"></path><path d="M618.23,209.28a4.43,4.43,0,1,0-4.43,4.43A4.43,4.43,0,0,0,618.23,209.28Z" style="opacity:0.30000000000000004"></path><path d="M609.62,195.07a4.43,4.43,0,1,0-4.43,4.43A4.43,4.43,0,0,0,609.62,195.07Z" style="opacity:0.30000000000000004"></path><circle cx="542.41" cy="199.5" r="4.43" style="opacity:0.30000000000000004"></circle><path d="M532.81,195.07a4.43,4.43,0,1,0-4.43,4.43A4.43,4.43,0,0,0,532.81,195.07Z" style="opacity:0.30000000000000004"></path><path d="M609.21,224.61a4.43,4.43,0,1,0-4.43,4.43A4.43,4.43,0,0,0,609.21,224.61Z" style="opacity:0.30000000000000004"></path><path d="M471.51,224.61a4.43,4.43,0,1,0-4.43,4.43A4.43,4.43,0,0,0,471.51,224.61Z" style="opacity:0.1"></path><path d="M450.09,195.07a4.43,4.43,0,1,0-4.43,4.43A4.43,4.43,0,0,0,450.09,195.07Z" style="opacity:0.1"></path><circle cx="579.34" cy="230.52" r="4.43" style="opacity:0.30000000000000004"></circle><path d="M532.81,234.21a4.43,4.43,0,1,0-4.43,4.43A4.43,4.43,0,0,0,532.81,234.21Z" style="opacity:0.30000000000000004"></path><circle cx="511.39" cy="230.52" r="4.43" style="opacity:0.30000000000000004"></circle><circle cx="340.05" cy="223.13" r="4.43" style="opacity:0.30000000000000004"></circle><path d="M452.31,229.78a4.43,4.43,0,1,0-4.43,4.43A4.43,4.43,0,0,0,452.31,229.78Z" style="opacity:0.30000000000000004"></path><path d="M374,223.13a4.43,4.43,0,1,0-4.43,4.43A4.43,4.43,0,0,0,374,223.13Z" style="opacity:0.1"></path><path d="M424.24,228.3a4.43,4.43,0,1,0-4.43,4.43A4.43,4.43,0,0,0,424.24,228.3Z" style="opacity:0.30000000000000004"></path><path d="M334.14,195.81a4.44,4.44,0,1,0-4.43,4.43A4.44,4.44,0,0,0,334.14,195.81Z" style="opacity:0.30000000000000004"></path><path d="M408.73,218a4.43,4.43,0,1,0-4.43,4.43A4.43,4.43,0,0,0,408.73,218Z" style="opacity:0.1"></path><path d="M486.28,234.21a4.43,4.43,0,1,0-4.43,4.43A4.43,4.43,0,0,0,486.28,234.21Z" style="opacity:0.30000000000000004"></path><circle cx="418.33" cy="196.54" r="4.43" style="opacity:0.30000000000000004"></circle><path d="M402.63,234.21a4.43,4.43,0,1,0-4.43,4.43A4.43,4.43,0,0,0,402.63,234.21Z" style="opacity:0.30000000000000004"></path><path d="M581.56,216.49a4.43,4.43,0,1,0-4.43,4.43A4.44,4.44,0,0,0,581.56,216.49Z" style="opacity:0.30000000000000004"></path><path d="M548.32,216.49a4.43,4.43,0,1,0-4.43,4.43A4.43,4.43,0,0,0,548.32,216.49Z" style="opacity:0.30000000000000004"></path><path d="M462.65,211.32a4.43,4.43,0,1,0-4.43,4.43A4.44,4.44,0,0,0,462.65,211.32Z" style="opacity:0.30000000000000004"></path><path d="M446.4,212.79a4.43,4.43,0,1,0-4.43,4.43A4.43,4.43,0,0,0,446.4,212.79Z" style="opacity:0.1"></path><path d="M199.72,209.1a4.44,4.44,0,1,0-4.43,4.43A4.43,4.43,0,0,0,199.72,209.1Z" style="opacity:0.30000000000000004"></path><path d="M204.89,225.35a4.44,4.44,0,1,0-4.43,4.43A4.43,4.43,0,0,0,204.89,225.35Z" style="opacity:0.30000000000000004"></path><path d="M187.16,206.88a4.43,4.43,0,1,0-4.43,4.44A4.43,4.43,0,0,0,187.16,206.88Z" style="opacity:0.30000000000000004"></path><path d="M235.17,224.61a4.43,4.43,0,1,0-4.43,4.43A4.44,4.44,0,0,0,235.17,224.61Z" style="opacity:0.30000000000000004"></path><path d="M216,229.78a4.44,4.44,0,1,0-4.44,4.43A4.43,4.43,0,0,0,216,229.78Z" style="opacity:0.1"></path><path d="M187.9,228.3a4.43,4.43,0,1,0-4.43,4.43A4.43,4.43,0,0,0,187.9,228.3Z" style="opacity:0.30000000000000004"></path><path d="M172.39,218a4.43,4.43,0,1,0-4.43,4.43A4.43,4.43,0,0,0,172.39,218Z" style="opacity:0.30000000000000004"></path><path d="M244.77,211.32a4.43,4.43,0,1,0-4.43,4.43A4.43,4.43,0,0,0,244.77,211.32Z" style="opacity:0.30000000000000004"></path><path d="M221.87,212.79a4.43,4.43,0,1,0-4.43,4.43A4.43,4.43,0,0,0,221.87,212.79Z" style="opacity:0.30000000000000004"></path><path d="M332.66,223.13a4.43,4.43,0,1,0-4.43,4.43A4.43,4.43,0,0,0,332.66,223.13Z" style="opacity:0.30000000000000004"></path><path d="M332.66,211.32a4.43,4.43,0,1,0-4.43,4.43A4.43,4.43,0,0,0,332.66,211.32Z" style="opacity:0.30000000000000004"></path><path d="M317.15,203.19a4.43,4.43,0,1,0-4.43,4.43A4.43,4.43,0,0,0,317.15,203.19Z" style="opacity:0.30000000000000004"></path><path d="M260.28,195.81a4.43,4.43,0,1,0-4.43,4.43A4.43,4.43,0,0,0,260.28,195.81Z" style="opacity:0.30000000000000004"></path><path d="M275.05,209.1a4.43,4.43,0,1,0-4.43,4.43A4.43,4.43,0,0,0,275.05,209.1Z" style="opacity:0.30000000000000004"></path><path d="M280.22,225.35a4.43,4.43,0,1,0-4.43,4.43A4.43,4.43,0,0,0,280.22,225.35Z" style="opacity:0.30000000000000004"></path><path d="M262.5,206.88a4.44,4.44,0,1,0-4.44,4.44A4.44,4.44,0,0,0,262.5,206.88Z" style="opacity:0.1"></path><path d="M310.5,224.61a4.43,4.43,0,1,0-4.43,4.43A4.43,4.43,0,0,0,310.5,224.61Z" style="opacity:0.30000000000000004"></path><circle cx="362.94" cy="206.88" r="4.43" style="opacity:0.30000000000000004"></circle><path d="M263.23,228.3a4.43,4.43,0,1,0-4.43,4.43A4.43,4.43,0,0,0,263.23,228.3Z" style="opacity:0.30000000000000004"></path><path d="M247.72,218a4.43,4.43,0,1,0-4.43,4.43A4.43,4.43,0,0,0,247.72,218Z" style="opacity:0.30000000000000004"></path><circle cx="212.27" cy="198.76" r="4.43" style="opacity:0.30000000000000004"></circle><path d="M301.64,211.32a4.43,4.43,0,1,0-4.43,4.43A4.43,4.43,0,0,0,301.64,211.32Z" style="opacity:0.30000000000000004"></path><path d="M285.39,212.79a4.43,4.43,0,1,0-4.43,4.43A4.43,4.43,0,0,0,285.39,212.79Z" style="opacity:0.1"></path><circle cx="292.78" cy="198.76" r="4.43" style="opacity:0.1"></circle><path d="M562.36,226.83a4.44,4.44,0,1,0-4.44,4.43A4.44,4.44,0,0,0,562.36,226.83Z" style="opacity:0.30000000000000004"></path><path d="M545.37,226.83a4.43,4.43,0,1,0-4.43,4.43A4.44,4.44,0,0,0,545.37,226.83Z" style="opacity:0.1"></path><path d="M594.85,321.36a4.43,4.43,0,1,0-4.43,4.43A4.43,4.43,0,0,0,594.85,321.36Z" style="opacity:0.1"></path><path d="M493.67,321.36a4.43,4.43,0,1,0-4.43,4.43A4.44,4.44,0,0,0,493.67,321.36Z" style="opacity:0.1"></path><path d="M642.86,317.67a4.43,4.43,0,1,0-4.43,4.43A4.43,4.43,0,0,0,642.86,317.67Z" style="opacity:0.30000000000000004"></path><circle cx="526.9" cy="321.36" r="4.43" style="opacity:0.30000000000000004"></circle><path d="M493.67,309.55a4.43,4.43,0,1,0-4.43,4.43A4.44,4.44,0,0,0,493.67,309.55Z" style="opacity:0.30000000000000004"></path><path d="M436.06,307.33a4.43,4.43,0,1,0-4.43,4.43A4.43,4.43,0,0,0,436.06,307.33Z" style="opacity:0.30000000000000004"></path><path d="M382.14,295.51a4.43,4.43,0,1,0-4.43,4.43A4.43,4.43,0,0,0,382.14,295.51Z" style="opacity:0.30000000000000004"></path><path d="M665,322.1a4.44,4.44,0,1,0-4.43,4.43A4.43,4.43,0,0,0,665,322.1Z" style="opacity:0.1"></path><path d="M441.23,323.58A4.43,4.43,0,1,0,436.8,328,4.43,4.43,0,0,0,441.23,323.58Z" style="opacity:0.1"></path><circle cx="292.78" cy="331.7" r="4.43" style="opacity:0.1"></circle><path d="M651.68,309.54a4.43,4.43,0,1,0-4.43,4.43A4.43,4.43,0,0,0,651.68,309.54Z" style="opacity:0.30000000000000004"></path><path d="M633.26,301.42a4.43,4.43,0,1,0-4.43,4.43A4.43,4.43,0,0,0,633.26,301.42Z" style="opacity:0.1"></path><circle cx="623.66" cy="319.15" r="4.43" style="opacity:0.30000000000000004"></circle><path d="M597.81,305.85a4.44,4.44,0,1,0-4.43,4.43A4.44,4.44,0,0,0,597.81,305.85Z" style="opacity:0.30000000000000004"></path><path d="M583.77,299.94a4.43,4.43,0,1,0-4.43,4.44A4.43,4.43,0,0,0,583.77,299.94Z" style="opacity:0.30000000000000004"></path><path d="M515.09,305.85a4.44,4.44,0,1,0-4.43,4.43A4.44,4.44,0,0,0,515.09,305.85Z" style="opacity:0.1"></path><path d="M423.5,305.11a4.43,4.43,0,1,0-4.43,4.44A4.43,4.43,0,0,0,423.5,305.11Z" style="opacity:0.30000000000000004"></path><path d="M357.77,331a4.43,4.43,0,1,0-4.43,4.44A4.43,4.43,0,0,0,357.77,331Z" style="opacity:0.30000000000000004"></path><path d="M395.44,302.16a4.43,4.43,0,1,0-4.43,4.43A4.43,4.43,0,0,0,395.44,302.16Z" style="opacity:0.30000000000000004"></path><path d="M566.79,305.85a4.44,4.44,0,1,0-4.43,4.43A4.44,4.44,0,0,0,566.79,305.85Z" style="opacity:0.1"></path><circle cx="613.8" cy="307.51" r="4.43" style="opacity:0.30000000000000004"></circle><circle cx="542.41" cy="297.73" r="4.43" style="opacity:0.30000000000000004"></circle><circle cx="604.78" cy="322.84" r="4.43" style="opacity:0.30000000000000004"></circle><circle cx="467.08" cy="322.84" r="4.43" style="opacity:0.1"></circle><circle cx="579.34" cy="328.75" r="4.43" style="opacity:0.30000000000000004"></circle><path d="M532.81,332.44a4.43,4.43,0,1,0-4.43,4.43A4.43,4.43,0,0,0,532.81,332.44Z" style="opacity:0.30000000000000004"></path><circle cx="511.39" cy="328.75" r="4.43" style="opacity:0.30000000000000004"></circle><circle cx="340.05" cy="321.36" r="4.43" style="opacity:0.30000000000000004"></circle><path d="M452.31,328a4.43,4.43,0,1,0-4.43,4.43A4.43,4.43,0,0,0,452.31,328Z" style="opacity:0.30000000000000004"></path><path d="M374,321.36a4.43,4.43,0,1,0-4.43,4.43A4.43,4.43,0,0,0,374,321.36Z" style="opacity:0.1"></path><path d="M424.24,326.53a4.43,4.43,0,1,0-4.43,4.43A4.43,4.43,0,0,0,424.24,326.53Z" style="opacity:0.30000000000000004"></path><path d="M408.73,316.19a4.43,4.43,0,1,0-4.43,4.43A4.43,4.43,0,0,0,408.73,316.19Z" style="opacity:0.1"></path><path d="M486.28,332.44a4.43,4.43,0,1,0-4.43,4.43A4.43,4.43,0,0,0,486.28,332.44Z" style="opacity:0.30000000000000004"></path><path d="M402.63,332.44a4.43,4.43,0,1,0-4.43,4.43A4.43,4.43,0,0,0,402.63,332.44Z" style="opacity:0.30000000000000004"></path><path d="M581.56,314.72a4.43,4.43,0,1,0-4.43,4.43A4.44,4.44,0,0,0,581.56,314.72Z" style="opacity:0.30000000000000004"></path><path d="M548.32,314.72a4.43,4.43,0,1,0-4.43,4.43A4.43,4.43,0,0,0,548.32,314.72Z" style="opacity:0.30000000000000004"></path><path d="M462.65,309.55a4.43,4.43,0,1,0-4.43,4.43A4.44,4.44,0,0,0,462.65,309.55Z" style="opacity:0.30000000000000004"></path><path d="M446.4,311a4.43,4.43,0,1,0-4.43,4.43A4.43,4.43,0,0,0,446.4,311Z" style="opacity:0.1"></path><path d="M199.72,307.33a4.44,4.44,0,1,0-4.43,4.43A4.43,4.43,0,0,0,199.72,307.33Z" style="opacity:0.30000000000000004"></path><path d="M204.89,323.58a4.44,4.44,0,1,0-4.43,4.43A4.43,4.43,0,0,0,204.89,323.58Z" style="opacity:0.30000000000000004"></path><path d="M187.16,305.11a4.43,4.43,0,1,0-4.43,4.44A4.43,4.43,0,0,0,187.16,305.11Z" style="opacity:0.30000000000000004"></path><circle cx="230.74" cy="322.84" r="4.43" style="opacity:0.30000000000000004"></circle><path d="M216,328a4.44,4.44,0,1,0-4.44,4.43A4.43,4.43,0,0,0,216,328Z" style="opacity:0.1"></path><path d="M187.9,326.53a4.43,4.43,0,1,0-4.43,4.43A4.43,4.43,0,0,0,187.9,326.53Z" style="opacity:0.30000000000000004"></path><path d="M172.39,316.19a4.43,4.43,0,1,0-4.43,4.43A4.43,4.43,0,0,0,172.39,316.19Z" style="opacity:0.30000000000000004"></path><path d="M244.77,309.55a4.43,4.43,0,1,0-4.43,4.43A4.43,4.43,0,0,0,244.77,309.55Z" style="opacity:0.30000000000000004"></path><circle cx="217.44" cy="311.02" r="4.43" style="opacity:0.30000000000000004"></circle><path d="M332.66,321.36a4.43,4.43,0,1,0-4.43,4.43A4.43,4.43,0,0,0,332.66,321.36Z" style="opacity:0.30000000000000004"></path><path d="M332.66,309.55a4.43,4.43,0,1,0-4.43,4.43A4.43,4.43,0,0,0,332.66,309.55Z" style="opacity:0.30000000000000004"></path><path d="M317.15,301.42a4.43,4.43,0,1,0-4.43,4.43A4.43,4.43,0,0,0,317.15,301.42Z" style="opacity:0.30000000000000004"></path><path d="M275.05,307.33a4.43,4.43,0,1,0-4.43,4.43A4.43,4.43,0,0,0,275.05,307.33Z" style="opacity:0.30000000000000004"></path><path d="M280.22,323.58a4.43,4.43,0,1,0-4.43,4.43A4.43,4.43,0,0,0,280.22,323.58Z" style="opacity:0.30000000000000004"></path><path d="M262.5,305.11a4.44,4.44,0,1,0-4.44,4.44A4.44,4.44,0,0,0,262.5,305.11Z" style="opacity:0.1"></path><circle cx="306.07" cy="322.84" r="4.43" style="opacity:0.30000000000000004"></circle><path d="M367.37,305.11a4.43,4.43,0,1,0-4.43,4.44A4.43,4.43,0,0,0,367.37,305.11Z" style="opacity:0.30000000000000004"></path><path d="M263.23,326.53A4.43,4.43,0,1,0,258.8,331,4.43,4.43,0,0,0,263.23,326.53Z" style="opacity:0.30000000000000004"></path><path d="M247.72,316.19a4.43,4.43,0,1,0-4.43,4.43A4.43,4.43,0,0,0,247.72,316.19Z" style="opacity:0.30000000000000004"></path><path d="M301.64,309.55a4.43,4.43,0,1,0-4.43,4.43A4.43,4.43,0,0,0,301.64,309.55Z" style="opacity:0.30000000000000004"></path><path d="M285.39,311a4.43,4.43,0,1,0-4.43,4.43A4.43,4.43,0,0,0,285.39,311Z" style="opacity:0.1"></path><path d="M562.36,325.06a4.44,4.44,0,1,0-4.44,4.43A4.44,4.44,0,0,0,562.36,325.06Z" style="opacity:0.30000000000000004"></path><path d="M545.37,325.06a4.43,4.43,0,1,0-4.43,4.43A4.44,4.44,0,0,0,545.37,325.06Z" style="opacity:0.1"></path><line x1="90.41" y1="254.89" x2="687.91" y2="254.89" style="fill:none;stroke:#263238;stroke-linecap:round;stroke-linejoin:round"></line><line x1="128.81" y1="241.6" x2="680.53" y2="241.6" style="fill:none;stroke:#263238;stroke-linecap:round;stroke-linejoin:round"></line><line x1="176.82" y1="254.15" x2="176.82" y2="243.07" style="fill:none;stroke:#263238;stroke-linecap:round;stroke-linejoin:round"></line><line x1="204.89" y1="254.15" x2="204.89" y2="243.07" style="fill:none;stroke:#263238;stroke-linecap:round;stroke-linejoin:round"></line><line x1="232.95" y1="254.15" x2="232.95" y2="243.07" style="fill:none;stroke:#263238;stroke-linecap:round;stroke-linejoin:round"></line><line x1="261.02" y1="254.15" x2="261.02" y2="243.07" style="fill:none;stroke:#263238;stroke-linecap:round;stroke-linejoin:round"></line><line x1="289.08" y1="254.15" x2="289.08" y2="243.07" style="fill:none;stroke:#263238;stroke-linecap:round;stroke-linejoin:round"></line><line x1="317.15" y1="254.15" x2="317.15" y2="243.07" style="fill:none;stroke:#263238;stroke-linecap:round;stroke-linejoin:round"></line><line x1="345.22" y1="254.15" x2="345.22" y2="243.07" style="fill:none;stroke:#263238;stroke-linecap:round;stroke-linejoin:round"></line><line x1="373.28" y1="254.15" x2="373.28" y2="243.07" style="fill:none;stroke:#263238;stroke-linecap:round;stroke-linejoin:round"></line><line x1="401.35" y1="254.15" x2="401.35" y2="243.07" style="fill:none;stroke:#263238;stroke-linecap:round;stroke-linejoin:round"></line><line x1="429.41" y1="254.15" x2="429.41" y2="243.07" style="fill:none;stroke:#263238;stroke-linecap:round;stroke-linejoin:round"></line><line x1="457.48" y1="254.15" x2="457.48" y2="243.07" style="fill:none;stroke:#263238;stroke-linecap:round;stroke-linejoin:round"></line><line x1="485.54" y1="254.15" x2="485.54" y2="243.07" style="fill:none;stroke:#263238;stroke-linecap:round;stroke-linejoin:round"></line><line x1="513.61" y1="254.15" x2="513.61" y2="243.07" style="fill:none;stroke:#263238;stroke-linecap:round;stroke-linejoin:round"></line><line x1="541.68" y1="254.15" x2="541.68" y2="243.07" style="fill:none;stroke:#263238;stroke-linecap:round;stroke-linejoin:round"></line><line x1="569.74" y1="254.15" x2="569.74" y2="243.07" style="fill:none;stroke:#263238;stroke-linecap:round;stroke-linejoin:round"></line><line x1="597.81" y1="254.15" x2="597.81" y2="243.07" style="fill:none;stroke:#263238;stroke-linecap:round;stroke-linejoin:round"></line><line x1="625.87" y1="254.15" x2="625.87" y2="243.07" style="fill:none;stroke:#263238;stroke-linecap:round;stroke-linejoin:round"></line><line x1="653.94" y1="254.15" x2="653.94" y2="243.07" style="fill:none;stroke:#263238;stroke-linecap:round;stroke-linejoin:round"></line><line x1="20.98" y1="339.83" x2="702.68" y2="339.83" style="fill:none;stroke:#263238;stroke-linecap:round;stroke-linejoin:round"></line><line x1="38.71" y1="291.82" x2="692.34" y2="291.82" style="fill:none;stroke:#263238;stroke-linecap:round;stroke-linejoin:round"></line><line x1="196.7" y1="182.51" x2="639.17" y2="182.51" style="fill:none;stroke:#263238;stroke-linecap:round;stroke-linejoin:round"></line><line x1="203.81" y1="173.77" x2="639.17" y2="173.77" style="fill:none;stroke:#263238;stroke-linecap:round;stroke-linejoin:round"></line></g><g id="freepik--Floor--inject-2"><line x1="4.63" y1="423.89" x2="743.15" y2="423.89" style="fill:none;stroke:#263238;stroke-linecap:round;stroke-linejoin:round"></line></g></svg>