<svg xmlns="http://www.w3.org/2000/svg" viewBox="0 0 750 500"><g id="freepik--background-complete--inject-2"><polygon points="235.53 242.02 254.85 165.21 285.14 236.57 276.26 234.09 298.19 276.71 285.66 272.75 305.13 316.28 233.76 296.68 238.66 274.73 232.91 282.16 245.47 237.2 235.53 242.02" style="fill:#ebebeb"></polygon><path d="M163.05,213l24.81-98.61L226.74,206l-11.4-3.18,28.16,54.71-16.09-5.09,17.71,47a468.56,468.56,0,0,0-85.42-14.87L167.08,255l-7.38,9.54,16.12-57.71Z" style="fill:#f5f5f5"></path><path d="M117.44,229.81,136.76,153,167,224.36l-8.87-2.48L180.1,264.5l-12.53-4,15.14,26.72a266.44,266.44,0,0,0-67.89-1.35l5.75-23.39L114.82,270l12.56-45Z" style="fill:#e0e0e0"></path><path d="M45.4,229l24.8-98.61L109.08,222l-11.39-3.18,28.15,54.71-16.09-5.09,14,16.77C90.09,289.58,68.8,293,42.05,304L49.42,271l-7.37,9.54,16.12-57.71Z" style="fill:#f5f5f5"></path><path d="M682.11,286.93l9.44-37.54,14.81,34.88L702,283.06l10.72,20.83L706.61,302l8,15.57c-11.71-.94-22.85-1.37-34-1.83l3-12.77-2.81,3.63,6.14-22Z" style="fill:#e0e0e0"></path><path d="M693,316.21l-1.81,0-5.29-.19c-4.66-.3-11.53-.19-20.37.16a310.44,310.44,0,0,0-32,3.55c-12.41,2-26.45,4.81-41.86,8.41s-32.24,7.75-50.46,11.59c-4.55,1-9.2,1.82-13.92,2.76s-9.56,1.63-14.46,2.42l-7.43,1c-2.49.32-5,.7-7.54.88-5.09.42-10.23,1-15.46,1.16-5.23.32-10.53.29-15.89.33l-8.09-.2c-2.71-.05-5.43-.28-8.17-.41-10.93-.69-22.07-1.87-33.33-3.6A621.33,621.33,0,0,1,348,328.86c-23.31-6.34-45.85-13.29-67.74-19.56-10.95-3.14-21.72-6.14-32.33-8.86s-21.05-5.15-31.3-7.27-20.3-3.79-30.11-5.18-19.4-2.25-28.69-2.76a286.81,286.81,0,0,0-51.62,1.86,224.64,224.64,0,0,0-41.58,9.39,185,185,0,0,0-29.55,12.75l-5.46,3c-.87.46-1.66,1-2.43,1.48L25,315.2l-4,2.55a19.17,19.17,0,0,0-1.69,1.16L17.86,320l-4.27,3.14-1.47,1.05s.48-.38,1.44-1.09l4.24-3.18,1.48-1.11c.52-.4,1.07-.8,1.68-1.18l4-2.57,2.22-1.45c.77-.5,1.56-1,2.43-1.49L35,309.05A182.93,182.93,0,0,1,64.58,296.2a224.8,224.8,0,0,1,41.62-9.47,286.4,286.4,0,0,1,51.7-1.93c9.29.5,18.88,1.44,28.72,2.74s19.89,3.07,30.15,5.16,20.7,4.55,31.32,7.26,21.4,5.71,32.35,8.85c21.9,6.26,44.44,13.21,67.74,19.55A623.47,623.47,0,0,0,417,343.5c11.25,1.73,22.37,2.91,33.29,3.6,2.74.14,5.45.37,8.16.42l8.07.2c5.35,0,10.65,0,15.86-.32,5.23-.14,10.36-.73,15.44-1.15,2.54-.18,5-.56,7.54-.87l7.42-1c4.89-.78,9.71-1.57,14.44-2.41s9.37-1.77,13.92-2.74c18.2-3.82,35-8,50.46-11.53s29.47-6.39,41.9-8.33a305.76,305.76,0,0,1,32.06-3.47c8.85-.32,15.73-.4,20.38-.07l5.3.25C692.38,316.16,693,316.21,693,316.21Z" style="fill:#e0e0e0"></path><path d="M639.38,276.27,656.56,208l26.93,63.46-7.89-2.21,19.5,37.9L684,303.59l8.57,12.58c-15.39-.5-35.67-1.11-55.06,2.7l4.7-13.51L637.06,312l11.16-40Z" style="fill:#f5f5f5"></path><path d="M563.8,79.66c.84-6.08-7.74-11.07-14.18-11.59-3.07-.25-6.26.22-9.17-.79-6.3-2.2-8.82-10.35-15-12.94-4.6-1.94-9.9-.21-14.36,2s-8.86,5.07-13.84,5.39c-4.34.27-9-1.33-12.83.78-2.83,1.58-4.31,4.84-6.91,6.76s-5.87,2.27-9,2.45-6.43.2-9.31,1.52-5.26,4.36-4.66,7.47Z" style="fill:#f5f5f5"></path><path d="M256.23,80.72c.51-3.65-4.64-6.65-8.51-7-1.85-.15-3.77.13-5.51-.48-3.79-1.32-5.31-6.21-9-7.77-2.77-1.17-6-.13-8.63,1.22s-5.32,3-8.32,3.23c-2.6.17-5.43-.8-7.7.48-1.7.94-2.59,2.9-4.15,4A10,10,0,0,1,199,76a15.23,15.23,0,0,0-5.59.91c-1.73.79-3.16,2.62-2.8,4.49Z" style="fill:#f5f5f5"></path><path d="M714.62,165.45c.5-3.65-4.65-6.65-8.52-7-1.84-.15-3.76.13-5.51-.48-3.78-1.32-5.3-6.21-9-7.77-2.77-1.17-6-.13-8.63,1.22s-5.32,3-8.32,3.24c-2.6.16-5.43-.8-7.7.47-1.7,1-2.59,2.9-4.16,4.06a9.92,9.92,0,0,1-5.42,1.47,15.28,15.28,0,0,0-5.6.91c-1.72.79-3.16,2.62-2.8,4.49Z" style="fill:#f5f5f5"></path><path d="M427.19,165.71c.71-5.13-6.54-9.36-12-9.8-2.6-.21-5.3.19-7.76-.67-5.33-1.86-7.46-8.75-12.67-10.94-3.89-1.65-8.37-.18-12.14,1.71s-7.5,4.29-11.71,4.56c-3.67.24-7.65-1.12-10.86.67-2.39,1.33-3.64,4.08-5.84,5.71s-5,1.93-7.64,2.07-5.44.17-7.88,1.29-4.45,3.69-3.94,6.32Z" style="fill:#ebebeb"></path><path d="M605,176.4a2.67,2.67,0,1,1,3.51,2.52V325.29h-1.68V178.92A2.66,2.66,0,0,1,605,176.4Z" style="fill:#e0e0e0"></path><path d="M578.28,198.61c3.82.59,6.61-2.61,7.5-5.46.83-2.64,1.22-5.37,2.37-7.88,1.62-3.5,5.9-5.11,9.74-4.79a27.07,27.07,0,0,1,10.69,3.36V206s-7.92-8.22-11.47-8.36c-5.94-.24-5.61,9.51-11.38,10.95a13.37,13.37,0,0,1-13.53-4.86,19.87,19.87,0,0,1-3.78-9.92S571.08,197.5,578.28,198.61Z" style="fill:#ebebeb"></path><path d="M583,205.79s.06,0,.17-.09a5.62,5.62,0,0,0,.46-.34,8.13,8.13,0,0,0,1.4-1.53,11.28,11.28,0,0,0,1.41-2.74,28.23,28.23,0,0,0,1-3.61,39.36,39.36,0,0,0,1-6.77c0-.87.06-1.58.06-2.07,0-.23,0-.41,0-.56a.8.8,0,0,0,0-.2.8.8,0,0,0,0,.2l0,.56c0,.49,0,1.19-.12,2.06a45.39,45.39,0,0,1-1,6.73,31.82,31.82,0,0,1-1,3.6,12.17,12.17,0,0,1-1.36,2.73,8.79,8.79,0,0,1-1.34,1.55C583.2,205.63,583,205.78,583,205.79Z" style="fill:#e0e0e0"></path><path d="M356.91,279.49h0a5.14,5.14,0,0,1,6.54,3.19l4.43,13.12a5.11,5.11,0,0,1-2.61,6.24l-1.31.64Z" style="fill:#e0e0e0"></path><path d="M353.24,279.87l5.07,15.91q1.33,4.22,2.68,8.43a6.75,6.75,0,0,0,.29.9c.25.58,0-.54,0-.33a16.1,16.1,0,0,0,0,3.4v9.73c0,3.22,5,3.23,5,0v-8.45c0-1.91.33-4.14-.26-6L360.12,285c-.68-2.15-1.37-4.3-2.05-6.46-1-3.05-5.81-1.75-4.83,1.33Z" style="fill:#ebebeb"></path><path d="M377.41,306.77h6.23A10.39,10.39,0,0,1,394,317.16v.67a0,0,0,0,1,0,0H367a0,0,0,0,1,0,0v-.67A10.39,10.39,0,0,1,377.41,306.77Z" style="fill:#e0e0e0"></path><path d="M343.64,316.52h50.68a2.67,2.67,0,0,1,2.68,2.67v24.62a2.68,2.68,0,0,1-2.68,2.68h-42a2.69,2.69,0,0,1-2.53-1.79l-8.66-24.62A2.68,2.68,0,0,1,343.64,316.52Z" style="fill:#f5f5f5"></path><path d="M308,280.54v4.8s17.37.72,17.37,0v-9.71h-5.51l-4.26,4.26Z" style="fill:#e0e0e0"></path><polygon points="432.18 299.14 433.05 307.37 437.13 311.17 444.64 311.6 444.64 297.62 433.21 297.16 432.18 299.14" style="fill:#e0e0e0"></polygon><path d="M433.32,222.14q2.76,7.17,5.51,14.33,3.87,10,7.72,20.08a12.23,12.23,0,0,0,.76,2c.23.37-.06-1,0,0,.16,2.08.34,4.15.51,6.23q.94,11.55,1.88,23.11c.44,5.43.83,10.87,1.33,16.29,0,.09,0,.18,0,.27a2.56,2.56,0,0,0,2.5,2.5,2.52,2.52,0,0,0,2.5-2.5L455,290.75q-1-11.92-1.94-23.84c-.21-2.52-.41-5-.62-7.55a9.68,9.68,0,0,0-.51-2.83l-7.07-18.38c-2.18-5.68-4.33-11.37-6.55-17l-.12-.3a2.56,2.56,0,0,0-3.07-1.74,2.51,2.51,0,0,0-1.75,3.07Z" style="fill:#ebebeb"></path><path d="M331.15,227v77.27c0,3.57-.15,7.18,0,10.75v.16c0,3.21,5,3.22,5,0V237.91c0-3.57.14-7.18,0-10.75a.75.75,0,0,1,0-.15c0-3.22-5-3.23-5,0Z" style="fill:#ebebeb"></path><rect x="305.79" y="284.24" width="22.46" height="39.19" style="fill:#e0e0e0"></rect><rect x="442.38" y="319.06" width="35.75" height="31.44" style="fill:#e0e0e0"></rect><path d="M308,346.49V312.58s29.06-8.39,48.76,10.34A46,46,0,0,1,368,346.49Z" style="fill:#f5f5f5"></path><path d="M439.81,291.63a4.81,4.81,0,0,0-1.1,4.11c.31,2.85,3.79,19.77,3.79,19.77l-5.37,31h6.48s1.64-17.86,17.87-22.13a25,25,0,0,1,15.83.87,3.1,3.1,0,0,0,4.25-2.88V310.48a7.05,7.05,0,0,0-4.84-6.69Z" style="fill:#f5f5f5"></path><rect x="400.09" y="283.06" width="23.82" height="2.8" rx="1.32" transform="translate(-55.8 462.85) rotate(-55.5)" style="fill:#e0e0e0"></rect><rect x="409.61" y="291.22" width="29.9" height="2.8" rx="1.32" transform="translate(240.43 -189.02) rotate(34.5)" style="fill:#e0e0e0"></rect><path d="M327.58,227h116v-2a9,9,0,0,0-9-9H336.6a9,9,0,0,0-9,9Z" style="fill:#e0e0e0"></path><path d="M448.31,346.4a21,21,0,1,0,19-18.46A21,21,0,0,0,448.31,346.4Z" style="fill:#e0e0e0"></path><path d="M448.18,348.49h0a21,21,0,1,0,42,.61h0Z" style="fill:#e0e0e0"></path><path d="M454.57,346.72a14.74,14.74,0,1,0,12.88-12.51A14.75,14.75,0,0,0,454.57,346.72Z" style="fill:#f5f5f5"></path><path d="M469.37,334.11a14.75,14.75,0,0,0-14.95,14.52l29.47.43A14.73,14.73,0,0,0,469.37,334.11Z" style="fill:#f5f5f5"></path><path d="M460.33,347.2a9,9,0,1,0,7.43-7.23A9,9,0,0,0,460.33,347.2Z" style="fill:#e0e0e0"></path><rect x="301.35" y="306.77" width="10.67" height="29.6" rx="5.01" style="fill:#e0e0e0"></rect><path d="M302.43,261.83s-3.12-.48-4.31,1.44-1.08,3.71,0,4.91,4.43,1.32,6.95,1.32h6.35a4.53,4.53,0,0,0-1-3C309.38,265.3,302.43,261.83,302.43,261.83Z" style="fill:#e0e0e0"></path><polygon points="309.74 268.18 309.74 286.24 311.42 286.24 311.42 268.61 309.74 268.18" style="fill:#e0e0e0"></polygon><path d="M307.22,246.85s-3.11-.48-4.31,1.44-1.08,3.71,0,4.91,4.43,1.32,6.95,1.32h6.35a4.53,4.53,0,0,0-1-3C314.17,250.32,307.22,246.85,307.22,246.85Z" style="fill:#e0e0e0"></path><polygon points="314.53 253.2 314.53 281.22 316.22 281.22 316.22 253.63 314.53 253.2" style="fill:#e0e0e0"></polygon><rect x="303.22" y="344.4" width="141.42" height="6.93" style="fill:#e0e0e0"></rect><path d="M317.13,344a21,21,0,1,0,19-18.47A21,21,0,0,0,317.13,344Z" style="fill:#e0e0e0"></path><path d="M317,346.06h0a21,21,0,1,0,42,.6h0Z" style="fill:#e0e0e0"></path><path d="M323.39,344.29a14.74,14.74,0,1,0,12.88-12.52A14.74,14.74,0,0,0,323.39,344.29Z" style="fill:#f5f5f5"></path><path d="M338.19,331.68a14.73,14.73,0,0,0-14.95,14.52l29.47.43A14.73,14.73,0,0,0,338.19,331.68Z" style="fill:#f5f5f5"></path><path d="M329.15,344.77a9,9,0,1,0,7.43-7.23A9,9,0,0,0,329.15,344.77Z" style="fill:#e0e0e0"></path></g><g id="freepik--Floor--inject-2"><path d="M694.48,418.26s-.59,0-1.73,0l-5.06,0-19.45,0c-16.9,0-41.35-.11-71.56-.37l-106.12-1.22c-39.94-.49-83.85-1-129.94-1.09l-17.18,0c-5.68-.06-11.37.19-17-.53-11.22-1.28-21.81-5.09-31.62-9.75s-19-10.14-28.13-15.29c-4.54-2.57-9.06-5.08-13.59-7.46S244.06,378,239.5,376s-9.14-3.85-13.76-5.35l-1.72-.59-1.74-.53-3.45-1-3.46-.91c-1.15-.3-2.3-.61-3.46-.84a136.28,136.28,0,0,0-27.23-3.29c-.56,0-1.11-.05-1.66-.05l-1.65,0c-1.1,0-2.19,0-3.27.11-2.17.21-4.33.34-6.43.72a85,85,0,0,0-12.25,2.83,131.59,131.59,0,0,0-21.77,9.21C124.29,383.36,113,391,102.77,397.37s-19.14,11.57-26.92,14.9a69.86,69.86,0,0,1-18.61,5.53l-2.92.34-2.12.07-1.72.05,1.72-.1,2.12-.1,2.91-.37a70.32,70.32,0,0,0,18.54-5.61c7.75-3.35,16.71-8.54,26.85-14.95s21.49-14.06,34.86-21.15a130.69,130.69,0,0,1,21.82-9.26,84.24,84.24,0,0,1,12.31-2.86c2.11-.39,4.28-.52,6.46-.73,1.09-.08,2.19-.08,3.29-.12l1.66,0c.56,0,1.11,0,1.67,0A136.51,136.51,0,0,1,212,366.3c1.17.23,2.32.54,3.47.84l3.48.9,3.46,1,1.74.53,1.73.59c4.64,1.51,9.21,3.39,13.8,5.36s9.12,4.24,13.67,6.6,9.06,4.89,13.61,7.46c9.1,5.14,18.3,10.59,28.1,15.26s20.31,8.42,31.46,9.7c5.55.71,11.21.46,16.91.52l17.18,0c46.1.13,90,.61,130,1.13l106.11,1.33c30.21.31,54.66.45,71.56.54l19.45.08,5.06,0Z" style="fill:#263238"></path></g><g id="freepik--Hill--inject-2"><path d="M717.61,413.35c-31.31-15.63-63.3-43.4-96.48-63-34.7-20.46-76.55-30.8-116.54-25.92-26.54,3.23-51.24,15-74.7,27.84s-46.45,26.95-71.76,35.57-45.74,10-79.62,2.84l-19.46-5.24s40.28,27.93,69.28,29.73c26.86,1.66,409.15,3.52,409.15,3.52Z" style="fill:#455a64"></path><g style="opacity:0.1"><path d="M643.76,363.52c0,.18-.91.29-2.58.32s-4.11.08-7.25.22a129.26,129.26,0,0,0-26.15,4.36c-10.86,2.85-23.44,7.56-37.5,12.84-7,2.62-14.47,5.35-22.36,7.77a150.93,150.93,0,0,1-25,5.66,107.78,107.78,0,0,1-13.13.83l-3.24-.1-1.61-.05-1.6-.14-3.19-.29L497,394.5a120.59,120.59,0,0,1-23.13-6.38c-7.12-2.64-13.67-5.5-19.82-8.06s-11.85-4.85-17.17-6.63A101.66,101.66,0,0,0,411,367.89c-6.25-.38-9.75,0-9.81-.42s3.39-1.36,9.85-1.6,15.86.75,26.88,4.05c5.52,1.59,11.44,3.72,17.68,6.14s12.84,5.09,19.84,7.55a121.79,121.79,0,0,0,22.27,5.85l3,.39,3,.24,1.51.13,1.52,0,3.05.08a105.65,105.65,0,0,0,12.46-.82,153.16,153.16,0,0,0,24.22-5.38c7.74-2.3,15.14-4.9,22.21-7.39s13.81-4.88,20.21-6.92,12.44-3.75,18-5a126.47,126.47,0,0,1,15.3-2.46l3.3-.27,3.06-.11L630,362l1.37,0,2.55,0a54.14,54.14,0,0,1,7.35.76C642.93,363.1,643.78,363.35,643.76,363.52Z" style="fill:#fff"></path></g><g style="opacity:0.1"><path d="M668,383.75c-.06.25-4.11-.95-11.62-1.82s-18.52-.95-31.85,1.24A212.67,212.67,0,0,0,603,388c-7.68,2.06-15.82,4.6-24.43,7.17s-17.71,5.22-27.34,7.25a137.87,137.87,0,0,1-30.3,3.26,150.32,150.32,0,0,1-15.45-1.13c-5.05-.64-10-1.54-14.79-2.52-9.62-2-18.75-4.48-27.42-6.84s-16.87-4.65-24.63-6.43a218.41,218.41,0,0,0-21.74-4A118.84,118.84,0,0,0,385,384.6c-1.88.22-3.53.55-5,.83l-2,.37-1.62.38a13.42,13.42,0,0,1-3,.56,13.17,13.17,0,0,1,2.87-1.07l1.61-.5,2-.5c1.42-.35,3.07-.77,5-1.07a111.59,111.59,0,0,1,32.25-.71,209.53,209.53,0,0,1,22,3.71c7.83,1.7,16.1,3.92,24.78,6.22s17.77,4.71,27.3,6.66c4.77.95,9.64,1.83,14.61,2.45A148.13,148.13,0,0,0,520.93,403a137.31,137.31,0,0,0,29.74-3.15c9.51-2,18.56-4.54,27.18-7.05s16.79-5,24.56-7a205.68,205.68,0,0,1,21.86-4.51c13.52-2,24.72-1.66,32.26-.42l2.67.42,2.32.5,2,.45c.6.14,1.14.32,1.62.45A12.91,12.91,0,0,1,668,383.75Z" style="fill:#fff"></path></g><g style="opacity:0.1"><path d="M479.1,362.51a3,3,0,1,1-.1,0" style="fill:#fff"></path></g><path d="M490.5,330.79c-.13.09-1.63-2.12-3.89-4.49s-4.37-4-4.28-4.13a22.75,22.75,0,0,1,8.17,8.62Z" style="fill:#263238"></path><path d="M489.61,317.19c.16,0,.26,2.66,1.18,5.76s2.27,5.4,2.13,5.48a17.38,17.38,0,0,1-3.31-11.24Z" style="fill:#263238"></path><path d="M497.78,312.19a14.39,14.39,0,0,1,.11,2.41c0,1.49.08,3.53.24,5.79s.41,4.29.6,5.76a13.15,13.15,0,0,1,.25,2.4,9.43,9.43,0,0,1-.61-2.34,50,50,0,0,1-.76-5.78,51.54,51.54,0,0,1-.09-5.83A9.63,9.63,0,0,1,497.78,312.19Z" style="fill:#263238"></path><path d="M621.18,402a24.63,24.63,0,0,1-2.95-4.17,25.32,25.32,0,0,1-2.5-4.45,24.94,24.94,0,0,1,2.94,4.17A25.41,25.41,0,0,1,621.18,402Z" style="fill:#263238"></path><path d="M627.51,401.16a5.22,5.22,0,0,1-1.69-.89,14.57,14.57,0,0,1-3.34-3.2,14.42,14.42,0,0,1-2.16-4.08,4.93,4.93,0,0,1-.4-1.87,19.85,19.85,0,0,0,7.59,10Z" style="fill:#263238"></path><path d="M639.33,403.83a7.47,7.47,0,0,1-2.3-.64,19.45,19.45,0,0,1-5-2.93,19,19,0,0,1-3.88-4.27,7.55,7.55,0,0,1-1.11-2.12,31.36,31.36,0,0,0,5.32,6A30.93,30.93,0,0,0,639.33,403.83Z" style="fill:#263238"></path><path d="M471.44,357.57c-.11-.11,1.62-2,3.36-4.65s2.85-4.95,3-4.88a16.7,16.7,0,0,1-2.56,5.17A16.92,16.92,0,0,1,471.44,357.57Z" style="fill:#263238"></path><path d="M466.44,354.38a22.26,22.26,0,0,1,3.45-3.38,23.2,23.2,0,0,1,3.8-3,22,22,0,0,1-3.45,3.37A23.64,23.64,0,0,1,466.44,354.38Z" style="fill:#263238"></path><path d="M456,355.3a14.09,14.09,0,0,1,2.19-1.07,50.88,50.88,0,0,0,9.93-6.09,13.86,13.86,0,0,1,1.95-1.46,9.7,9.7,0,0,1-1.71,1.74,35.59,35.59,0,0,1-4.75,3.5,36.42,36.42,0,0,1-5.27,2.65A9.41,9.41,0,0,1,456,355.3Z" style="fill:#263238"></path></g><g id="freepik--Plants--inject-2"><path d="M326.32,390.31a4.31,4.31,0,0,1,.6.85c.36.57.84,1.41,1.41,2.47a56.17,56.17,0,0,1,5.88,17.72c.18,1.19.29,2.15.34,2.82a3.45,3.45,0,0,1,0,1c-.08,0-.29-1.45-.73-3.8A69.06,69.06,0,0,0,328,393.8C327,391.65,326.25,390.35,326.32,390.31Z" style="fill:#263238"></path><path d="M322,402.76a6.3,6.3,0,0,1,2,1.18,19.72,19.72,0,0,1,3.92,4,14.9,14.9,0,0,1,2.53,5,4.71,4.71,0,0,1,.19,2.31c-.09,0-.1-.88-.54-2.2a17.53,17.53,0,0,0-2.6-4.78,25.38,25.38,0,0,0-3.73-4C322.65,403.3,321.91,402.83,322,402.76Z" style="fill:#263238"></path><path d="M341.8,400c.18.07-1.12,3.4-2.25,7.62a33.67,33.67,0,0,0-1,5.49,18,18,0,0,1-.21,2.31,7.23,7.23,0,0,1-.16-2.34,25.09,25.09,0,0,1,.84-5.59,44.76,44.76,0,0,1,1.77-5.36A11,11,0,0,1,341.8,400Z" style="fill:#263238"></path><path d="M97.86,456.15a25.83,25.83,0,0,1-1.08-2.75,67.7,67.7,0,0,0-2.85-6.48,68.46,68.46,0,0,0-3.56-6.14,23.15,23.15,0,0,1-1.58-2.49,13,13,0,0,1,1.89,2.28,47,47,0,0,1,6.45,12.71A12.39,12.39,0,0,1,97.86,456.15Z" style="fill:#263238"></path><path d="M93.64,432.89s.26.19.65.6.93,1,1.56,1.83a35,35,0,0,1,4.1,6.78,34.24,34.24,0,0,1,2.44,7.54c.19,1,.31,1.81.36,2.37a3.37,3.37,0,0,1,0,.89c-.09,0-.27-1.23-.75-3.18a42.11,42.11,0,0,0-2.56-7.4,41.48,41.48,0,0,0-3.92-6.78C94.39,433.9,93.58,433,93.64,432.89Z" style="fill:#263238"></path><path d="M109.14,438.83c.16.05-1,3.07-1.35,7s0,7.08-.13,7.09a6.51,6.51,0,0,1-.4-2.06,24.68,24.68,0,0,1,0-5.09,24.41,24.41,0,0,1,1-5A7,7,0,0,1,109.14,438.83Z" style="fill:#263238"></path><path d="M666.92,463a21.41,21.41,0,0,1-1.08-2.75,65.31,65.31,0,0,0-6.41-12.62,21.3,21.3,0,0,1-1.58-2.49,13.31,13.31,0,0,1,1.88,2.28,46.66,46.66,0,0,1,6.46,12.71A13.07,13.07,0,0,1,666.92,463Z" style="fill:#263238"></path><path d="M662.7,439.77a3.45,3.45,0,0,1,.65.6c.39.41.93,1,1.55,1.83A34,34,0,0,1,669,449a34.88,34.88,0,0,1,2.45,7.54c.19,1,.31,1.81.36,2.37a2.58,2.58,0,0,1,0,.88c-.08,0-.27-1.22-.74-3.17a42.73,42.73,0,0,0-2.56-7.41,42.07,42.07,0,0,0-3.92-6.77C663.44,440.78,662.63,439.83,662.7,439.77Z" style="fill:#263238"></path><path d="M678.2,445.71c.15.05-1,3.07-1.35,7s0,7.07-.14,7.09a6.9,6.9,0,0,1-.4-2.07,25.3,25.3,0,0,1,0-5.08,24.34,24.34,0,0,1,1-5A6.46,6.46,0,0,1,678.2,445.71Z" style="fill:#263238"></path><path d="M148.73,370.6A20.16,20.16,0,0,0,112.88,365a32.08,32.08,0,0,0-34.7-3.45,32.09,32.09,0,0,0-16.35,30.79c-11.28-2.05-23.21,7.6-23.55,19.06v6.88S61,422.07,84.6,407.92,148.73,370.6,148.73,370.6Z" style="fill:#455a64"></path><path d="M114.71,335a14.27,14.27,0,0,0-3.12,20.28C118.25,350.15,119.36,340.59,114.71,335Z" style="fill:#455a64"></path><path d="M97.17,339.72A9.28,9.28,0,0,0,105,350.56C105.71,345.14,101.88,340.2,97.17,339.72Z" style="fill:#455a64"></path><path d="M175.36,412.29a23.89,23.89,0,0,0-6.45-15.83,8.61,8.61,0,0,1,1.9,1.77,19.76,19.76,0,0,1,3.28,5.35,19.56,19.56,0,0,1,1.39,6.12A8.23,8.23,0,0,1,175.36,412.29Z" style="fill:#263238"></path><path d="M179.9,387.52c.08,0-.18,1.35-.46,3.52a54.55,54.55,0,0,0,.47,17c.39,2.14.73,3.46.65,3.48a3.12,3.12,0,0,1-.35-.89c-.19-.59-.42-1.45-.66-2.52a44.74,44.74,0,0,1-.47-17.1c.18-1.09.37-2,.53-2.55A3.22,3.22,0,0,1,179.9,387.52Z" style="fill:#263238"></path><path d="M189.17,396.56c.06.07-.68.69-1.5,2a13.69,13.69,0,0,0-1.92,5.58,31.18,31.18,0,0,0-.07,6,13.74,13.74,0,0,1,.08,2.51,10.41,10.41,0,0,1-.45-2.48,25,25,0,0,1-.08-6.09,12.83,12.83,0,0,1,2.13-5.72,7.82,7.82,0,0,1,1.25-1.38C188.94,396.66,189.15,396.53,189.17,396.56Z" style="fill:#263238"></path><path d="M390.6,469.29a23.71,23.71,0,0,0-6.45-15.82,7.85,7.85,0,0,1,1.9,1.77,19.3,19.3,0,0,1,4.67,11.46A7.87,7.87,0,0,1,390.6,469.29Z" style="fill:#263238"></path><path d="M395.14,444.53c.08,0-.18,1.35-.46,3.51a57.38,57.38,0,0,0-.43,8.51,56.67,56.67,0,0,0,.9,8.47c.39,2.15.73,3.46.65,3.49a3.13,3.13,0,0,1-.34-.9,24.74,24.74,0,0,1-.67-2.52,44.74,44.74,0,0,1-.47-17.1c.19-1.08.37-2,.53-2.55A3.3,3.3,0,0,1,395.14,444.53Z" style="fill:#263238"></path><path d="M404.41,453.56c.06.07-.68.69-1.5,2a13.9,13.9,0,0,0-1.92,5.58,31.18,31.18,0,0,0-.07,6,13.72,13.72,0,0,1,.08,2.51,11.06,11.06,0,0,1-.45-2.47,25.08,25.08,0,0,1-.08-6.1,12.71,12.71,0,0,1,2.14-5.71,7.94,7.94,0,0,1,1.24-1.39C404.18,453.67,404.39,453.54,404.41,453.56Z" style="fill:#263238"></path></g><g id="freepik--Birds--inject-2"><path d="M688.73,94.94s-.53-.14-1.47-.33a12,12,0,0,0-4-.1,10.91,10.91,0,0,0-5.41,2.36,11.26,11.26,0,0,0-3.81,6.07l0,.07-.23.9-.34-.85a12.22,12.22,0,0,0-4.57-5.54,11.85,11.85,0,0,0-5.59-1.89,15.74,15.74,0,0,0-5.48.69,4.75,4.75,0,0,1,1.4-.6,11.68,11.68,0,0,1,4.11-.52,12,12,0,0,1,5.86,1.85,12.53,12.53,0,0,1,4.83,5.78l-.58,0,0-.07a11.67,11.67,0,0,1,4.05-6.37,11.23,11.23,0,0,1,9.85-2.06A4.66,4.66,0,0,1,688.73,94.94Z" style="fill:#263238"></path><path d="M619.93,107.62c0,.07-.74-.19-2.07-.46a16.8,16.8,0,0,0-5.66-.15,15.36,15.36,0,0,0-7.58,3.32,15.8,15.8,0,0,0-5.34,8.5l0,.1-.32,1.26-.49-1.2a17,17,0,0,0-6.4-7.75,16.55,16.55,0,0,0-7.83-2.66c-4.82-.33-7.64,1.18-7.67,1a6.55,6.55,0,0,1,1.94-.84,16.82,16.82,0,0,1,14,1.87,17.52,17.52,0,0,1,6.77,8.1l-.81.06,0-.1a16.32,16.32,0,0,1,5.67-8.92,15.77,15.77,0,0,1,13.81-2.88A6.5,6.5,0,0,1,619.93,107.62Z" style="fill:#263238"></path><path d="M105.8,61.49c0,.07-.74-.2-2.06-.46a16.32,16.32,0,0,0-5.66-.15A15.2,15.2,0,0,0,90.5,64.2a15.8,15.8,0,0,0-5.34,8.5l0,.1-.32,1.26-.48-1.2a17,17,0,0,0-6.41-7.75,16.4,16.4,0,0,0-7.83-2.66,21.74,21.74,0,0,0-7.67,1,6.54,6.54,0,0,1,2-.84,16.23,16.23,0,0,1,5.76-.73,16.66,16.66,0,0,1,8.22,2.6,17.41,17.41,0,0,1,6.76,8.09l-.8.07,0-.1A16.32,16.32,0,0,1,90,63.59a15.54,15.54,0,0,1,8-3.31,15.27,15.27,0,0,1,5.81.43A6.35,6.35,0,0,1,105.8,61.49Z" style="fill:#263238"></path><path d="M131.63,84.12a13.6,13.6,0,0,1-.92,1,22.79,22.79,0,0,0-2.25,3A22.18,22.18,0,0,0,125.12,100v.15l-.34,0a19.48,19.48,0,0,0-2.16-6.4,19.92,19.92,0,0,0-3.29-4.44,20.92,20.92,0,0,0-2.85-2.42c-.72-.5-1.15-.75-1.13-.78a1.06,1.06,0,0,1,.32.16,9.26,9.26,0,0,1,.89.51,18.14,18.14,0,0,1,3,2.36,19.52,19.52,0,0,1,5.61,11l-.34,0V100a21.71,21.71,0,0,1,3.47-11.94,19.51,19.51,0,0,1,2.36-3c.3-.34.57-.56.74-.73A1.56,1.56,0,0,1,131.63,84.12Z" style="fill:#263238"></path><path d="M651.09,72.15a13.14,13.14,0,0,1-.92,1A22.44,22.44,0,0,0,644.59,88v.14l-.35,0a19.28,19.28,0,0,0-2.16-6.39,19.91,19.91,0,0,0-3.28-4.44A20.21,20.21,0,0,0,636,75c-.73-.5-1.15-.75-1.14-.78a1.28,1.28,0,0,1,.33.15c.2.12.51.27.88.52a17.72,17.72,0,0,1,3,2.36,19.53,19.53,0,0,1,5.62,11l-.35,0V88a21.69,21.69,0,0,1,3.48-11.94,20.26,20.26,0,0,1,2.35-3c.31-.33.57-.55.74-.72S651.08,72.14,651.09,72.15Z" style="fill:#263238"></path></g><g id="freepik--Sun--inject-2"><circle cx="322.82" cy="60.68" r="17.4" style="fill:#FF725E"></circle><path d="M322.82,78.1a17.4,17.4,0,1,1,6.78-1.37A17.29,17.29,0,0,1,322.82,78.1Z" style="fill:#FF725E"></path><path d="M320.34,99.59a71.47,71.47,0,0,1-.18-7.18,71.35,71.35,0,0,1,.18-7.17,71.35,71.35,0,0,1,.18,7.17A71.47,71.47,0,0,1,320.34,99.59Z" style="fill:#FF725E"></path><path d="M320.34,99.61s-.09,0-.15-2.12c0-1.36-.05-3.16-.05-5.08s0-3.72.05-5.07c.06-2.12.12-2.12.15-2.12s.09,0,.15,2.12c0,1.35.05,3.16.05,5.07s0,3.72-.05,5.08C320.43,99.61,320.37,99.61,320.34,99.61Zm0-14.34c-.08.26-.16,3-.16,7.14s.08,6.88.16,7.15c.08-.27.17-3,.17-7.15S320.42,85.53,320.34,85.27Z" style="fill:#FF725E"></path><path d="M310.31,81.19c.09,0-1.55,3-3.65,6.69s-3.89,6.57-4,6.52,1.54-3.05,3.65-6.7S310.23,81.14,310.31,81.19Z" style="fill:#FF725E"></path><path d="M302.69,94.42h0s-.08,0,1-2c.69-1.26,1.63-2.93,2.65-4.7s2-3.41,2.74-4.64c1.06-1.73,1.2-1.88,1.24-1.88h0s.08,0-1,2c-.7,1.26-1.64,2.93-2.66,4.69-1.8,3.13-3.81,6.48-4,6.53Zm7.61-13.2c-.22.21-1.74,2.67-3.94,6.49s-3.58,6.37-3.66,6.66c.22-.21,1.74-2.67,3.94-6.49S310.22,81.51,310.3,81.22Z" style="fill:#FF725E"></path><path d="M300,74.78A37.84,37.84,0,0,1,296,78.25a39.55,39.55,0,0,1-4.29,3.17A37.15,37.15,0,0,1,295.73,78,38.92,38.92,0,0,1,300,74.78Z" style="fill:#FF725E"></path><path d="M291.67,81.44h0s-.06-.07,1.15-1.1c.77-.65,1.8-1.5,2.92-2.39a44.47,44.47,0,0,1,4.3-3.18h0v0A42.23,42.23,0,0,1,296,78.26c-1.12.89-2.18,1.71-3,2.31C291.94,81.34,291.73,81.44,291.67,81.44ZM300,74.8A48.72,48.72,0,0,0,295.74,78a44.87,44.87,0,0,0-4.05,3.44A47,47,0,0,0,296,78.23,46.26,46.26,0,0,0,300,74.8Zm0,0Z" style="fill:#FF725E"></path><path d="M337.7,92.52a10.27,10.27,0,0,1-.46-1.77c-.25-1.09-.6-2.6-1.05-4.26s-.89-3.13-1.23-4.21a10.44,10.44,0,0,1-.49-1.76,8,8,0,0,1,.74,1.68c.4,1,.89,2.54,1.34,4.2s.76,3.19.95,4.3A8.21,8.21,0,0,1,337.7,92.52Z" style="fill:#FF725E"></path><path d="M337.7,92.54c-.06,0-.13-.27-.48-1.78-.23-1-.59-2.58-1.05-4.26s-.92-3.23-1.22-4.21v0c-.44-1.43-.53-1.74-.47-1.76s0,0,.26.44c.13.31.31.75.49,1.24a43.6,43.6,0,0,1,1.34,4.2c.53,2,.83,3.55.95,4.31a8.52,8.52,0,0,1,.21,1.83Zm-3.22-12c0,.13.22.83.49,1.71v0c.31,1,.76,2.49,1.23,4.21s.82,3.24,1.05,4.26.37,1.62.43,1.74a10.54,10.54,0,0,0-.21-1.79c-.13-.75-.42-2.32-1-4.3s-1.07-3.48-1.34-4.2A10.85,10.85,0,0,0,334.48,80.55Z" style="fill:#FF725E"></path><path d="M355.35,80a61.09,61.09,0,0,1-5.14-4.26,60,60,0,0,1-4.91-4.53,62.09,62.09,0,0,1,5.15,4.26A58.78,58.78,0,0,1,355.35,80Z" style="fill:#FF725E"></path><path d="M355.34,80c-.18,0-2.78-2.2-5.15-4.26-1.34-1.18-2.59-2.29-3.51-3.15-1.45-1.34-1.41-1.38-1.39-1.41h0c.18,0,2.78,2.2,5.15,4.26,1.34,1.18,2.59,2.29,3.51,3.15,1.45,1.34,1.41,1.38,1.39,1.41h0Zm-10-8.78c.13.21,2,2,4.89,4.49s4.87,4.15,5.11,4.24c-.13-.22-2-2-4.89-4.49S345.56,71.33,345.33,71.24Z" style="fill:#FF725E"></path><path d="M362.11,62.78a12.3,12.3,0,0,1-2.1-.3c-1.29-.21-3.07-.49-5.05-.72s-3.78-.36-5.08-.44a14.44,14.44,0,0,1-2.11-.18,10.82,10.82,0,0,1,2.12-.08c1.31,0,3.12.11,5.11.34s3.78.55,5.06.83A11.55,11.55,0,0,1,362.11,62.78Z" style="fill:#FF725E"></path><path d="M362.05,62.81c-.16,0-.58-.07-1.63-.24L360,62.5c-1.77-.29-3.46-.53-5.05-.72s-3.29-.33-5.08-.44l-.42,0c-1.43-.09-1.71-.11-1.71-.17v0a11.77,11.77,0,0,1,2.13-.08c.9,0,2.77.08,5.11.34s4.18.64,5.06.83a11.19,11.19,0,0,1,2.06.56v0h0S362.1,62.81,362.05,62.81ZM347.8,61.14c.12,0,.78.08,1.66.14l.42,0c1.79.12,3.5.27,5.08.45s3.29.42,5.05.72l.42.06c.83.14,1.46.25,1.63.25h0a15,15,0,0,0-2-.53,50.07,50.07,0,0,0-5.06-.83,51,51,0,0,0-5.11-.34A15.33,15.33,0,0,0,347.8,61.14Z" style="fill:#FF725E"></path><path d="M362.13,45.86c0,.1-3.74,1.1-8.41,2.24s-8.48,2-8.5,1.88,3.74-1.1,8.41-2.24S362.11,45.76,362.13,45.86Z" style="fill:#FF725E"></path><path d="M345.26,50h-.06s0-.1,2.46-.76c1.59-.42,3.71-.95,6-1.5s4.38-1,6-1.41c2.51-.55,2.52-.49,2.53-.46h0s0,.09-2.46.75c-1.59.42-3.71,1-6,1.51s-4.38,1.05-6,1.4A19.31,19.31,0,0,1,345.26,50Zm16.83-4.13c-.34,0-3.56.7-8.45,1.89s-8.08,2.05-8.38,2.21c.34,0,3.56-.7,8.45-1.89S361.79,46,362.09,45.87Z" style="fill:#FF725E"></path><path d="M342.47,26.14c.08.06-1.72,2.93-4,6.42a74.08,74.08,0,0,1-4.33,6.22c-.08-.05,1.72-2.93,4-6.42S342.38,26.09,342.47,26.14Z" style="fill:#FF725E"></path><path d="M334.11,38.8h0v0c0-.16,2.05-3.43,4-6.43,1.12-1.69,2.18-3.26,3-4.44,1.26-1.81,1.33-1.8,1.36-1.78h0s.08.05-1.11,1.94c-.76,1.22-1.8,2.82-2.91,4.5s-2.18,3.27-3,4.44C334.32,38.65,334.15,38.8,334.11,38.8Zm8.34-12.63c-.22.19-1.88,2.54-4.3,6.2s-3.93,6.1-4,6.38c.23-.19,1.88-2.54,4.3-6.2S342.36,26.45,342.45,26.17Z" style="fill:#FF725E"></path><path d="M323,22a18.33,18.33,0,0,1,0,2.39c0,1.48-.05,3.51-.05,5.76s0,4.28.06,5.75a14.62,14.62,0,0,1,0,2.39,15.2,15.2,0,0,1-.24-2.38c-.09-1.47-.16-3.51-.16-5.76s.06-4.29.15-5.77A14,14,0,0,1,323,22Z" style="fill:#FF725E"></path><path d="M323,38.33s-.05,0-.12-.65c0-.44-.09-1-.13-1.75-.06-1-.17-3.06-.17-5.76s.09-4.77.15-5.77c.05-.7.09-1.3.14-1.74.06-.63.09-.65.11-.65h0c.05,0,.07.22,0,2.4,0,1.39-.05,3.49-.05,5.76s0,4.2.06,5.66v.09c0,2.19,0,2.41,0,2.41Zm0-16.27a22.94,22.94,0,0,0-.21,2.34c-.06,1-.16,3.07-.16,5.77s.11,4.77.17,5.76a21.36,21.36,0,0,0,.22,2.34c0-.2,0-1.48,0-2.35v-.09c0-1.46-.05-3.46-.06-5.66s0-4.37,0-5.76C323,23.55,323,22.26,323,22.06Z" style="fill:#FF725E"></path><path d="M308.18,40.43c-.09,0-1.92-2.79-4.1-6.35s-3.86-6.49-3.78-6.54,1.92,2.79,4.1,6.35S308.26,40.37,308.18,40.43Z" style="fill:#FF725E"></path><path d="M308.18,40.45s-.2-.15-1.28-1.83c-.77-1.2-1.78-2.81-2.83-4.53-1.87-3.05-3.83-6.38-3.79-6.55h0s.08-.06,1.29,1.82c.78,1.2,1.78,2.81,2.83,4.53s2,3.35,2.74,4.58c1.12,1.93,1.07,2,1,2h0Zm-7.86-12.88c.08.28,1.5,2.77,3.78,6.5s3.84,6.13,4.06,6.33c-.08-.28-1.5-2.77-3.78-6.5S300.54,27.77,300.32,27.57Z" style="fill:#FF725E"></path><path d="M299.35,47.93a9,9,0,0,1-1.85-.29c-1.13-.24-2.68-.62-4.38-1.12s-3.2-1-4.28-1.44a8.88,8.88,0,0,1-1.71-.75,10.19,10.19,0,0,1,1.8.51c1.1.35,2.61.83,4.3,1.33s3.22.91,4.33,1.21A11.49,11.49,0,0,1,299.35,47.93Z" style="fill:#FF725E"></path><path d="M299.29,48a3.13,3.13,0,0,1-.45-.05c-.34-.06-.81-.14-1.34-.26-.77-.16-2.35-.51-4.38-1.11s-3.55-1.16-4.28-1.44c-.52-.2-.95-.38-1.27-.52-.48-.21-.47-.24-.46-.26s.26,0,1.82.5c.88.28,2.52.81,4.3,1.33,1.62.48,3.09.88,4.34,1.22,1.58.43,1.81.51,1.8.56h0S299.36,48,299.29,48Zm-12.13-3.62a12.88,12.88,0,0,0,1.69.73c.73.28,2.26.84,4.28,1.43s3.61,1,4.37,1.12a13,13,0,0,0,1.8.3h0c-.13-.07-1-.32-1.76-.52-1.25-.34-2.72-.74-4.34-1.21-1.78-.53-3.42-1-4.3-1.33A17.47,17.47,0,0,0,287.16,44.34Z" style="fill:#FF725E"></path><path d="M295.49,61.3a43.48,43.48,0,0,1-5.55.72,44,44,0,0,1-5.59.35,84.67,84.67,0,0,1,11.14-1.07Z" style="fill:#FF725E"></path><path d="M284.67,62.42a.82.82,0,0,1-.32,0s0,0,0,0v0a48.5,48.5,0,0,1,5.56-.72,45.72,45.72,0,0,1,5.6-.35s0,0,0,0h0v0a47.1,47.1,0,0,1-5.57.71C287.8,62.24,285.51,62.42,284.67,62.42Zm-.29-.05a51.29,51.29,0,0,0,5.56-.37,49.76,49.76,0,0,0,5.53-.7,51.29,51.29,0,0,0-5.56.37A49.34,49.34,0,0,0,284.38,62.37Z" style="fill:#FF725E"></path></g></svg>