<?xml version="1.0" encoding="utf-8"?>
<!-- Generator: Adobe Illustrator 22.0.1, SVG Export Plug-In . SVG Version: 6.00 Build 0)  -->
<svg version="1.1" id="OBJECTS" xmlns="http://www.w3.org/2000/svg" xmlns:xlink="http://www.w3.org/1999/xlink" x="0px" y="0px"
	 viewBox="0 0 800 800" style="enable-background:new 0 0 800 800;" xml:space="preserve">
<style type="text/css">
	.st0{fill:transparent;}
	.st1{fill:#FFD580;}
	.st2{fill:#193972;}
</style>
<rect x="-3.4" y="-7.9" class="st0" width="804.4" height="814.9"/>
<g>
	<path class="st1" d="M369.3,580.4c-8.5-0.7-16.5-1.9-23.8-3.5c-0.7-13.9-1.4-27.6-2-40.4c9.7,1.2,19.8,2,30.2,2.4
		C372.8,547.1,371.2,562.2,369.3,580.4z"/>
	<path class="st1" d="M353.3,712.9c-0.1-1.6-3.8-54.7-7.3-124.8c6.9,1.4,14.3,2.5,22.1,3.2C361.9,650,353.3,711.5,353.3,712.9z"/>
	<path class="st1" d="M387.5,581.2c-3.3,0-6.5-0.1-9.6-0.2l-3-42c4.2,0.2,8.4,0.2,12.6,0.2c9.4,0,18.6-0.3,27.5-1l-3,41.6
		C404.3,580.7,396,581.2,387.5,581.2z"/>
	<path class="st1" d="M378.6,591.9c2.9,0.1,5.9,0.2,8.8,0.2c8.2,0,16.2-0.4,23.7-1.3L394.9,780L378.6,591.9z"/>
	<path class="st1" d="M420.3,578.7c-1.9-18.1-3.5-32.8-4.3-40.5c10.6-0.8,20.8-2.1,30.4-3.8c-0.6,12.1-1.2,25.1-1.9,38.4
		C437.5,575.2,429.3,577.2,420.3,578.7z"/>
	<path class="st1" d="M436.4,712.9c0-1.4-8.8-64.5-15-123.4c8.2-1.3,15.8-3.1,22.5-5.2C440.3,655.5,436.5,711.3,436.4,712.9z"/>
	<path class="st1" d="M450,457.8c0,0-1.1,23-2.8,55.6c-18,3.4-38.3,5.3-59.8,5.3c-15.8,0-30.9-1-44.9-2.9c-1.7-33.9-2.9-58-2.9-58
		l55.2-8.4L450,457.8z"/>
	<polygon class="st2" points="433.3,460.1 428,552.6 408.7,466.1 394.5,607.7 377,463.8 362.7,556.5 349.5,457.2 	"/>
	<g>
		
			<ellipse transform="matrix(0.7071 -0.7071 0.7071 0.7071 -70.9361 347.0927)" class="st2" cx="383.5" cy="259.2" rx="226.6" ry="226.6"/>
		<g>
			<g>
				<g>
					<g>
						<path class="st1" d="M209.6,381c-30.8-43.9-43.5-97.7-36.6-149.9c2.4-18.1,7.1-36,14.3-53.3c0-0.1,0.1-0.2,0.1-0.2
							c17.7-20.6,48.2-46.7,92.1-53.5c20.6-3.2,35.9-1.6,47.3,3.4c2.3,1,4.3,2.1,6.3,3.3c-53.1,42.2-101.2,103-122.3,168.6
							c-2.3,7.1-4.3,14.2-5.9,21.3C200,341.8,202.6,362.1,209.6,381z"/>
						<path class="st1" d="M365,470.7c-38.4-3.3-76.3-17.1-109.3-42c-14-10.6-26.3-22.5-37-35.6c-5.6-15.7-7.9-32.8-5.1-51.2
							c1.3-8.6,3.1-17.2,5.5-25.6c2-7.4,4.5-14.7,7.3-21.9c1.3-3.3,2.7-6.6,4.1-9.8c7.4-17,16.7-33.5,27.4-49.1
							c24.5-35.9,55.9-67.6,87.9-92.7c12.6,17.3,14.5,43.1,16.4,66.4c0.9,11.1,1,28.2,0.7,48.2c0,2.2,0,4.4-0.1,6.5
							c-0.6,32.6-2.3,71.4-3.6,102.7c-1,25.1-1.8,45.5-1.7,54.1C357.8,434.9,361.5,455.1,365,470.7z"/>
						<path class="st1" d="M374.6,102.1c-9,5.3-18,11.2-27,17.7c-0.2-0.1-0.4-0.2-0.6-0.2c-86.1-29.2-136.5,22.8-158.3,55
							c1.8-4.2,3.8-8.4,6-12.5c5.5-10.6,11.9-20.9,19.3-30.8c20.6-27.3,46.5-48.2,75.3-62.4c1.3-0.1,3-0.3,5.1-0.3
							c0.3,0,0.7,0,1.1,0c1.1,0,2.4,0,3.7,0.1c0.4,0,0.9,0.1,1.4,0.1c0.9,0.1,1.9,0.2,2.9,0.3c0.5,0.1,1,0.1,1.5,0.2
							c2.1,0.3,4.5,0.7,7,1.2c0.6,0.1,1.2,0.3,1.9,0.4c3.9,0.9,8.2,2.2,12.9,3.9c0.2,0.1,0.4,0.1,0.6,0.2c0.8,0.2,1.5,0.5,2.2,0.8
							c1,0.4,2,0.8,3.1,1.2c0.8,0.3,1.6,0.6,2.4,1c1,0.4,2.1,0.9,3.1,1.4c0.7,0.3,1.4,0.6,2.1,1c1,0.5,2,1,3,1.5
							c8.7,4.4,18.3,10.3,28.6,18l0.7,0.5C373,100.8,373.9,101.5,374.6,102.1z"/>
						<path class="st1" d="M524.5,418c-41,36.4-93.7,54.8-146.6,53.4c-2.9-20.2-2.5-51-1.1-84.2c0.9-20.5,2.2-42,3.2-62.5
							c1.6-31.2,9.9-145-15.4-188.9c-1-1.7-2-3.3-3.1-4.8c9-6.5,18-12.4,26.8-17.7c26.2,22.9,50.6,51.8,71.6,82.3
							c15.6,22.6,29.3,46.1,40.6,68.5c5.8,11.5,11.2,24,15.8,36.9C531.4,343.3,538.4,389.8,524.5,418z"/>
						<path class="st1" d="M413.8,83c-6.4,2.4-13.1,5.2-20.1,8.7c-1.7,0.8-3.4,1.7-5.2,2.6c-8.2-5.7-15.9-10.5-23-14.4
							c-3.7-2-7.2-3.8-10.6-5.4c-1.1-0.5-2.2-1-3.3-1.5c-2.7-1.2-5.2-2.2-7.7-3.2c-0.8-0.3-1.6-0.6-2.4-0.9
							c-0.8-0.3-1.6-0.6-2.4-0.8c-5.5-1.8-10.6-3.1-15.2-3.9c-0.6-0.1-1.3-0.2-2-0.3c-4.2-0.7-8.1-0.9-11.5-0.9c-0.6,0-1.3,0-1.9,0
							c-3.1,0.1-5.8,0.4-8.2,0.8c28.6-12.1,59.5-17.9,90.4-16.8c0.3,1.1,1.3,4.1,3.1,8.2c0.2,0.5,0.5,1,0.7,1.5
							c0.2,0.4,0.4,0.8,0.6,1.1c0.4,0.8,0.8,1.6,1.2,2.4c0.4,0.8,0.9,1.7,1.5,2.6c0.9,1.5,1.9,3.1,2.9,4.8c0.4,0.6,0.9,1.3,1.3,1.9
							c0.9,1.3,1.9,2.6,3,3.9c0.6,0.7,1.2,1.4,1.8,2.2c0,0,0,0.1,0.1,0.1c0.8,1,1.6,1.9,2.5,2.9c0.9,1,1.8,2,2.8,2.9
							C412.7,81.9,413.3,82.5,413.8,83z"/>
						<path class="st1" d="M501.6,82.8C488.6,76,463.5,68.4,426,79c-4.7-4.1-8.1-7.7-10.3-10.5c-3.5-4.6-8.5-15.8-10.6-20.6
							C438.8,51.3,471.9,62.8,501.6,82.8z"/>
						<path class="st1" d="M591.7,217.5c-9.5-24.1-31.4-51.5-56.1-69.7c-31.1-23-71.7-43.5-88.3-53.5c-0.9-0.6-1.8-1.1-2.6-1.6
							c-1.9-1.2-3.8-2.4-5.5-3.6c2.6-0.8,5.2-1.5,7.7-2.2c4.9-1.2,9.5-2.2,13.9-2.8c1.8-0.3,3.4-0.5,5.1-0.7l0,0
							c5.1-0.5,9.8-0.6,14.1-0.5c0.7,0,1.4,0,2.2,0.1c0.7,0,1.4,0.1,2.1,0.1c0.7,0.1,1.3,0.1,2,0.2c1.3,0.1,2.6,0.3,3.8,0.4
							c0,0,0.1,0,0.1,0c2.6,0.3,4.9,0.8,7.2,1.3c0.1,0,0.3,0.1,0.5,0.1c1,0.2,1.9,0.5,2.8,0.7c4.2,1.2,7.8,2.5,10.8,3.8
							c24.9,18.8,44.5,42.1,58.5,67.8C580.3,176.5,587.5,196.7,591.7,217.5z"/>
						<path class="st1" d="M553,387.1c-6.1,8-12.6,15.5-19.5,22.5c15.3-23.8,15.9-59.6-11.8-135.4c-2-5.6-4.2-11.1-6.5-16.5
							c-30.8-71.8-82.4-124.5-109.1-148.5c-1.4-1.3-2.8-2.5-4.1-3.7c2.1-1.1,4.2-2.3,6.2-3.3c6.5-3.4,12.8-6.2,18.7-8.6
							c2.2,1.5,4.6,3,7.1,4.4c36.8,20.4,84.6,46.4,118.9,76.6c19.2,16.8,34.2,35,40.8,54.3l0,0c0.4,2.5,0.7,5,0.9,7.5
							C600.2,288.1,586.9,342.1,553,387.1z"/>
					</g>
					<path class="st1" d="M425.9,73.4c3-0.8,6-1.3,9.1-1.7c12-1.5,24-2.1,36-0.8c6.1,0.6,12.1,1.9,17.9,3.9
						c-25.1-14.4-52.2-23.1-79.7-26.5c0.3,0.9,0.6,1.8,1,2.7c1.2,3.1,2.8,6.3,4.5,9.1c2.4,4,5.5,7.4,8.7,10.8
						C424.1,71.8,425,72.6,425.9,73.4z"/>
					<path class="st1" d="M340.2,80.4c1,0.5,2,1,3,1.5c-22.9,2.9-45.3,8.8-66.6,17.9c-31.8,13.6-60.6,35.2-81.9,62.2
						c5.5-10.6,11.9-20.9,19.3-30.8c20.6-27.3,46.5-48.2,75.3-62.4c1.3-0.1,3-0.3,5.1-0.3c0.3,0,0.7,0,1.1,0c1.1,0,2.4,0,3.7,0.1
						c0.4,0,0.9,0.1,1.4,0.1c0.9,0.1,1.9,0.2,2.9,0.3c0.5,0.1,1,0.1,1.5,0.2c2.1,0.3,4.5,0.7,7,1.2c0.6,0.1,1.2,0.3,1.9,0.4
						c4.1,0.9,8.6,2.3,13.4,4.1c0.8,0.2,1.5,0.5,2.2,0.8c1,0.4,2,0.8,3.1,1.2c0.8,0.3,1.6,0.6,2.4,1c1,0.4,2.1,0.9,3.1,1.4
						C338.7,79.8,339.4,80.1,340.2,80.4z"/>
					<path class="st1" d="M316,59.5c12.9-0.1,25.7,3,37.7,7.5c6.2,2.3,12.3,4.9,17.8,8.6c1.9,1.3,3.9,2.7,5.7,4.1
						c11.7-0.1,23.3,0.5,34.9,1.7c-1-0.9-1.9-1.9-2.8-2.9c-0.9-0.9-1.7-1.9-2.5-2.9c-0.1,0-0.1-0.1-0.1-0.1
						c-0.6-0.7-1.2-1.5-1.8-2.2c-1-1.3-2-2.6-3-3.9c-0.5-0.6-0.9-1.3-1.3-1.9c-1.1-1.6-2.1-3.2-2.9-4.8c-0.5-0.9-1-1.7-1.5-2.6
						c-0.4-0.8-0.9-1.6-1.2-2.4c-0.2-0.4-0.4-0.8-0.6-1.1c-0.3-0.5-0.5-1-0.7-1.5c-1.8-4-2.8-7-3.1-8.2
						c-27.1-0.9-54.1,3.4-79.6,12.6C312.8,59.5,314.4,59.5,316,59.5z"/>
					<path class="st1" d="M570,157.6c-11.6-10.3-23.8-20-36.4-29.1c-17.7-12.8-36.2-24.7-56.5-32.7c-9.8-3.8-19.9-6.7-30.2-8.9
						c4.9-1.2,9.5-2.2,13.9-2.8c1.8-0.3,3.5-0.5,5.2-0.7c5.1-0.5,9.8-0.6,14.1-0.5c0.7,0,1.4,0,2.2,0.1c0.7,0,1.4,0.1,2.1,0.1
						c0.7,0.1,1.3,0.1,2,0.2c1.3,0.1,2.6,0.3,3.8,0.4c0,0,0.1,0,0.1,0c2.5,0.4,4.9,0.8,7.2,1.3c0.1,0,0.3,0.1,0.5,0.1
						c1,0.2,1.9,0.5,2.8,0.7c4.2,1.2,7.8,2.5,10.8,3.8C536.4,108.6,556,131.8,570,157.6z"/>
				</g>
				<path class="st2" d="M209.6,381c-7.7-10.9-14.2-22.4-19.6-34.4c-16.3-36.1-22.2-76.3-17-115.5c1.8-5.2,3.2-10.4,3.2-15.5
					c-0.1,29.1,6.1,58.2,18.1,84.7c-3.8-18.4-2.8-37.6,2.8-55.5c3.1,18.3,6.6,37.4,13.5,54.5c-2.3,7.1-4.3,14.2-5.9,21.3
					c-3.3,14.3-3.1,28.3-0.5,41.7C205.6,368.8,207.4,375,209.6,381z"/>
				<path class="st2" d="M365,470.7c-38.4-3.3-76.3-17.1-109.3-42c-14-10.6-26.3-22.5-37-35.6c-2.5-7-4.3-14.2-5.4-21.8
					c-1.3-9.4-1.3-19.2,0.3-29.4c1.3-8.6,3.1-17.2,5.5-25.6c4,6.5,9.9,18.9,15.7,24.2c-4.2-12.4-8-32.5-8.4-46.1
					c-0.1-5.9,0.1-11.7,0.8-17.4c1.1,2.6,2.1,5.1,3.2,7.6c10.3,23.8,19.5,54,32.5,76.4c-3.6-19.9-1.7-47.5,0.9-67.6
					c5,29.8,14.8,64.9,32.3,89.6c-0.1-0.2,1.8-7,1.8-7.2c-2.4-17.2-3.5-45-0.6-62.1c6.6,24.7,15.7,59.4,24.4,83.5
					c0.4-9.5,2.2-18.8,4-28.1c2.3-11.7,4.5-23.3,6.8-35c4.9,21.9,10.8,49.1,18.4,70.1c2-10.5,5.2-27,8.2-37.6
					c-1,25.1-1.8,45.5-1.7,54.1c0.2,8,1.4,17.7,3.1,27.6C361.9,456.1,363.5,463.8,365,470.7z"/>
				<path class="st2" d="M524.5,418c-41,36.4-93.7,54.8-146.6,53.4c-1-6.5-1.5-14.1-1.8-22.5c-0.7-17.8-0.2-39.2,0.8-61.8
					c1.2,11,1.5,22.1,0.8,33.2c13.9-24.9,20.2-58.8,21.2-87.3c6.1,23.2,10.2,53,8.6,77c18.7-23.7,28.6-59.2,27.8-89.5
					c8.4,22.3,9.7,51.7,8.1,75.5c8.9-13,12.3-28.9,13.8-44.5c1.4-15.7,1.1-31.5,3.4-47c12.1,24.7,16.4,53.2,12.1,80.4
					c18.3-28.4,30.8-60.3,21.9-92.9c13.1,25.7,15.5,47.4,10.8,75.9c7.6-21.5,11.3-44.3,11-67.1c10.1,28.2,16.6,58.2,15.6,83.5
					C531.4,397.1,529.1,408.6,524.5,418z"/>
				<path class="st2" d="M533.5,409.5c5.9-5.9,4.7-20,3.7-30.5c-0.3-3.1-0.6-5.8-0.7-8c-0.4-9-0.2-18.2-0.8-27.1
					c-0.6-8.7-3.4-17.3-3.6-26.2c-1.8-16.9-2.4-46.1-4.2-63c10.3,18.2,15.6,51,17.6,71.8c9.5-28.8,4.4-60.1-3.8-88.6
					c12.1,11.8,18.4,28.2,22.5,44.5c1.3-22.5-1.6-45.2-8.7-66.6c13.5,14.1,23.3,31.7,28.4,50.6c-1.7-27-14.9-47.1-23.7-72.6
					c14.8,14.5,29.7,27.7,33.9,48c0.2-1.8,0.4-3.6,0.5-5.4c1.8,16.7,1.7,33.6-0.5,50.4C589.5,322,576,356.6,553,387.1
					C546.9,395.1,540.4,402.6,533.5,409.5z"/>
				<path class="st0" d="M204.3,362.4c1.2,6.3,3,12.5,5.2,18.6c-7.7-10.9-14.2-22.4-19.6-34.4C194.5,352.1,199.3,357.3,204.3,362.4z
					"/>
				<path class="st0" d="M360.6,448.3c1.3,7.7,2.9,15.5,4.4,22.4c-38.4-3.3-76.3-17.1-109.3-42c-14-10.6-26.3-22.5-37-35.6
					c-2.5-7-4.3-14.2-5.4-21.8c8.3,7.9,17,15.5,25.8,22.7c15.2,12.5,31,24.3,48.4,33.5C310.2,439.4,335.1,446.3,360.6,448.3z"/>
				<path class="st0" d="M531.9,384.5c-0.4,12.7-2.7,24.1-7.4,33.6c-41,36.4-93.7,54.8-146.6,53.4c-1-6.5-1.5-14.1-1.8-22.5
					c36.1,0.3,72.5-8.7,104.3-26C499.3,412.7,516.6,399.6,531.9,384.5z"/>
				<path class="st0" d="M533.5,409.5c5.9-5.9,4.7-20,3.7-30.5c25-26.2,44.4-58.1,56.9-92.3C589.5,322,576,356.6,553,387.1
					C546.9,395.1,540.4,402.6,533.5,409.5z"/>
			</g>
			<path class="st0" d="M459.8,195.6c-18.6-22.1-45.5-52.8-71.4-74.9l-23.9,15.1c-1-1.7-2-3.3-3.1-4.8c9-6.5,18-12.4,26.8-17.7
				C414.5,136.2,438.8,165.1,459.8,195.6z"/>
			<path class="st0" d="M552.9,174.5c-38.2-30.9-126.8-75.4-126.8-75.4l-20.1,9.9c-1.4-1.3-2.8-2.5-4.1-3.7c2.1-1.1,4.2-2.3,6.2-3.3
				c6.5-3.4,12.8-6.2,18.7-8.6c2.2,1.5,4.6,3,7.1,4.4C470.8,118.4,518.6,144.3,552.9,174.5z"/>
			<path class="st0" d="M362.8,257.4c0.1-32.8-5.7-71.6-18.9-103.1c-36,23.3-69.7,61.4-86,81.2c24.5-35.9,55.9-67.6,87.9-92.7
				c12.6,17.3,14.5,43.1,16.4,66.4C363,220.3,363.1,237.5,362.8,257.4z"/>
			<path class="st0" d="M466,87.2c-8.5,1.4-17.2,3.7-21.3,5.5c-1.9-1.2-3.8-2.4-5.5-3.6c2.6-0.8,5.2-1.5,7.7-2.2
				c4.9-1.2,9.5-2.2,13.9-2.8c1.8-0.3,3.4-0.5,5.1-0.7C466.4,84.5,467.6,86.2,466,87.2z"/>
			<path class="st0" d="M371.8,99.9l-4.8,1.8c-14.7-12.3-47.2-25.5-47.7-25.8c-0.3-0.2,3.7-0.7,7.4-1.1c0.2,0.1,0.4,0.1,0.6,0.2
				c0.8,0.2,1.5,0.5,2.2,0.8c1,0.4,2,0.8,3.1,1.2c0.8,0.3,1.6,0.6,2.4,1c1,0.4,2.1,0.9,3.1,1.4c0.7,0.3,1.4,0.6,2.1,1
				c1,0.5,2,1,3,1.5C351.9,86.4,361.5,92.2,371.8,99.9z"/>
			<path class="st2" d="M533.5,409.5C533.5,409.5,533.5,409.5,533.5,409.5c-3,3-6,5.8-9,8.5c18.2-36.8,0.7-104.7-24.1-153.9
				c-26.5-52.6-66.5-111-112.2-150.8c-8.8,5.3-17.7,11.2-26.8,17.7c29.1,39.8,20.2,161.3,18.5,193.7c-2.8,53.7-6.9,114.1-2.2,146.8
				c-4.3-0.1-8.6-0.4-12.9-0.7c-3.4-15.7-7.2-35.8-7.5-50c-0.6-26.7,8.2-167.4,4.6-211.5c-1.9-23.4-3.8-49.1-16.4-66.4
				c-60.9,47.9-120.2,119.8-132.1,199.1c-2.8,18.4-0.5,35.5,5.1,51.2c-3.2-3.9-6.2-8-9.1-12.1c-7-18.9-9.5-39.2-4.8-60.3
				C221.6,247,274.2,177.6,333,130.8c-11.8-7.5-28.9-10.5-53.6-6.7c-43.9,6.8-74.3,32.9-92.1,53.5c0.4-1,0.9-2,1.3-3
				c21.8-32.2,72.2-84.2,158.3-55c0.2,0.1,0.4,0.1,0.6,0.2c8.9-6.4,17.9-12.4,27-17.7c-0.7-0.6-1.6-1.3-2-1.7
				c-10.6-8-20.4-14-29.3-18.5c-27.7-14.1-47-13.8-53.9-13.1c3.6-1.8,7.3-3.5,11-5.1c0,0,0,0,0,0c12.6-2.1,33.9-1.1,65.2,16.2
				c7.1,3.9,14.8,8.7,23,14.4c1.7-0.9,3.5-1.8,5.2-2.6c7-3.5,13.7-6.3,20.1-8.7c-0.6-0.5-1.1-1.1-1.7-1.7
				C396.9,66,391.6,50,390.7,47c4.8,0.1,9.7,0.5,14.5,1c2.1,4.8,7.1,16,10.6,20.6c2.1,2.8,5.5,6.4,10.3,10.5
				c37.5-10.7,62.5-3,75.6,3.7c3.3,2.2,6.5,4.5,9.7,6.9l0.1,0.1c-12-5.4-33.4-10.9-64.6-2.9c-2.5,0.7-5.1,1.4-7.7,2.2
				c2.5,1.7,5.2,3.5,8.1,5.2c16.7,10,57.2,30.5,88.3,53.5c24.7,18.2,46.6,45.6,56.1,69.7c0,0,0,0,0,0.1c0,0,0,0,0,0
				c0.7,3.7,1.4,7.4,1.9,11.1c-18.3-53.7-102.2-99-159.7-130.9c-2.5-1.4-4.9-2.9-7.1-4.4c-6,2.4-12.2,5.2-18.7,8.6
				c-2.1,1.1-4.1,2.2-6.2,3.3c26.9,23.5,88.9,84.4,119.8,168.7C549.4,349.9,548.8,385.7,533.5,409.5z"/>
			<path class="st0" d="M326.8,127.5c-4.6,3.1-4.6,3.1-4.6,3.1s-66.9-20.6-134.8,47.2c0-0.1,0.1-0.2,0.1-0.2
				c17.7-20.6,48.2-46.7,92.1-53.5C300.1,120.9,315.4,122.6,326.8,127.5z"/>
		</g>
	</g>
	<path class="st2" d="M529.8,474.3c0,30.3-63.7,54.9-142.3,54.9c-78.6,0-142.3-24.6-142.3-54.9c0-9.1,5.8-17.7,15.9-25.2
		c-3.6,4.4-5.6,9.1-5.6,14c0,26.8,59.1,48.5,132,48.5c72.9,0,132-21.7,132-48.5c0-4.9-1.9-9.6-5.6-14
		C524.1,456.7,529.8,465.2,529.8,474.3z"/>
	<path class="st2" d="M475.9,547.9c0,18.8-39.6,34.1-88.4,34.1c-48.8,0-88.4-15.3-88.4-34.1c0-5.7,3.6-11,9.9-15.7
		c-2.3,2.8-3.5,5.7-3.5,8.7c0,16.7,36.7,30.2,82,30.2c45.3,0,82-13.5,82-30.2c0-3-1.2-5.9-3.5-8.7
		C472.3,536.9,475.9,542.2,475.9,547.9z"/>
	<g>
		<g>
			<g>
				<path class="st2" d="M228,290.5l6.3-8.3l-4.5-35.3l-20.3-15.7l-79.1,10.1l16.2,126.2l83.3-10.7l17-22l-4.2-33L228,290.5z
					 M156.8,258.7l42.7-5.5l7.1,5.5l2.5,19.5l-5.7,7.3L161,291L156.8,258.7z M214.6,337.8l-46.9,6l-4.2-33.2l46.9-6l8.7,6.8
					l2.3,17.7L214.6,337.8z"/>
				<polygon class="st2" points="126.6,393 104.7,221.5 215.8,207.3 251.1,234.6 257.6,284.7 263.9,289.6 270.5,341.3 241.9,378.2 
									"/>
			</g>
			<g>
				<polygon class="st2" points="303.9,330.2 299.2,224 274.5,225.1 280.2,352.2 368.4,348.3 367.5,327.4 				"/>
				<polygon class="st2" points="258.4,376 250.7,203.3 321,200.2 325.7,306.4 389.3,303.6 392.3,370.1 				"/>
			</g>
			<g>
				<path class="st2" d="M416.3,221.7l-21.7,20.1l-3.3,85.4l20.1,21.7l65.4,2.5l21.7-20.1l3.3-85.4l-20.1-21.7L416.3,221.7z
					 M474.1,320.9l-9.6,8.9l-39.2-1.5l-8.9-9.6l2.6-66.5l9.6-8.9l39.2,1.5l8.9,9.6L474.1,320.9z"/>
				<path class="st2" d="M485.3,374.5l-84.3-3.3l-32.9-35.6l4.1-104.3l35.6-32.9l84.3,3.3l32.9,35.6l-4.1,104.2L485.3,374.5z
					 M439.7,306l12.1,0.5l1.5-39.4l-12.1-0.5L439.7,306z"/>
			</g>
			<g>
				<polygon class="st2" points="649.7,242.3 622.1,238.7 584.8,287.6 565.7,285.1 572.6,232.3 548,229.2 531.8,355.3 556.3,358.5 
					563,306.1 582,308.5 608.4,365.2 636.5,368.9 604.6,300.4 				"/>
				<polygon class="st2" points="674.7,396.8 593,386.3 579.5,357.2 576,384.1 506.2,375.1 528.3,203.6 598.1,212.6 595,236.6 
					612,214.4 692.2,224.8 631.2,303.4 				"/>
			</g>
		</g>
		<g>
			<g>
				<path class="st1" d="M228,271.8l6.3-8.3l-4.5-35.3l-20.3-15.7l-79.1,10.1l16.2,126.2l83.3-10.7l17-22l-4.2-33L228,271.8z
					 M156.8,240.1l42.7-5.5l7.1,5.5l2.5,19.5l-5.7,7.3l-42.5,5.4L156.8,240.1z M214.6,319.2l-46.9,6l-4.2-33.2l46.9-6l8.7,6.8
					l2.3,17.7L214.6,319.2z"/>
				<polygon class="st1" points="125.3,376.1 102.9,201.5 216.3,187 252.6,215.1 259,265.2 265.3,270.2 272.1,323.1 242.8,361 				
					"/>
			</g>
			<g>
				<polygon class="st1" points="303.9,311.6 299.2,205.4 274.5,206.5 280.2,333.6 368.4,329.6 367.5,308.7 				"/>
				<polygon class="st1" points="256.9,359 249,183.2 322.5,179.9 327.2,286.1 390.8,283.3 393.9,352.9 				"/>
			</g>
			<g>
				<path class="st1" d="M416.3,203.1l-21.7,20.1l-3.3,85.4l20.1,21.7l65.4,2.5l21.7-20.1l3.3-85.4l-20.1-21.7L416.3,203.1z
					 M474.1,302.2l-9.6,8.9l-39.2-1.5l-8.9-9.6l2.6-66.5l9.6-8.9l39.2,1.5l8.9,9.6L474.1,302.2z"/>
				<path class="st1" d="M485.9,357.5l-85.6-3.3l-33.8-36.5l4.1-105.6l36.5-33.8l85.6,3.3l33.8,36.5l-4.1,105.6L485.9,357.5z
					 M441.3,285.8l9,0.3l1.4-36.2l-9-0.3L441.3,285.8z"/>
			</g>
			<g>
				<polygon class="st1" points="649.7,223.7 622.1,220.1 584.8,269 565.7,266.5 572.6,213.7 548,210.5 531.8,336.7 556.3,339.9 
					563,287.4 582,289.9 608.4,346.6 636.5,350.2 604.6,281.8 				"/>
				<polygon class="st1" points="677.3,380.1 591.9,369.1 580.3,344.2 577.3,367.2 504.4,357.8 527,183.2 599.9,192.6 597.3,212.4 
					611.3,194.1 695.1,204.9 633,285 				"/>
			</g>
		</g>
		<g>
			<g>
				<path class="st2" d="M228,271.8l6.3-8.3l-4.5-35.3l-20.3-15.7l-79.1,10.1l16.2,126.2l83.3-10.7l17-22l-4.2-33L228,271.8z
					 M156.8,240.1l42.7-5.5l7.1,5.5l2.5,19.5l-5.7,7.3l-42.5,5.4L156.8,240.1z M214.6,319.2l-46.9,6l-4.2-33.2l46.9-6l8.7,6.8
					l2.3,17.7L214.6,319.2z"/>
				<path class="st2" d="M135.1,363.4l-19.5-152.1l97.4-12.5l28.9,22.3l5.9,46l-1.8,2.3l8.6,6.7l5.6,43.7l-23.6,30.5L135.1,363.4z
					 M178.1,303.3l0.9,7.3l28.6-3.7l0.1-0.2l-0.9-6.9l-0.2-0.1L178.1,303.3z M171.4,251.4l0.8,6.4l23.2-3l-0.8-6.4L171.4,251.4z"/>
			</g>
			<g>
				<polygon class="st2" points="303.9,311.6 299.2,205.4 274.5,206.5 280.2,333.6 368.4,329.6 367.5,308.7 				"/>
				<polygon class="st2" points="267.7,347.2 260.9,194 311.6,191.8 316.4,298 379.9,295.1 382,342.1 				"/>
			</g>
			<g>
				<path class="st2" d="M416.3,203.1l-21.7,20.1l-3.3,85.4l20.1,21.7l65.4,2.5l21.7-20.1l3.3-85.4l-20.1-21.7L416.3,203.1z
					 M474.1,302.2l-9.6,8.9l-39.2-1.5l-8.9-9.6l2.6-66.5l9.6-8.9l39.2,1.5l8.9,9.6L474.1,302.2z"/>
				<path class="st2" d="M481.6,346l-76.2-3L378,313.4l3.7-96.2l29.6-27.4l76.2,3l27.4,29.6l-3.7,96.2L481.6,346z M431.2,296.8
					l28.4,1.1l1.7-1.6l2.2-55.7l-1.6-1.7l-28.4-1.1l-1.7,1.6l-2.2,55.7L431.2,296.8z"/>
			</g>
			<g>
				<polygon class="st2" points="649.7,223.7 622.1,220.1 584.8,269 565.7,266.5 572.6,213.7 548,210.5 531.8,336.7 556.3,339.9 
					563,287.4 582,289.9 608.4,346.6 636.5,350.2 604.6,281.8 				"/>
				<polygon class="st2" points="658.3,366.2 599.6,358.6 574.1,303.8 567.5,354.5 517.1,348 536.8,195.9 587.2,202.4 580.6,253 
					616.3,206.2 674,213.6 619.8,283.5 				"/>
			</g>
		</g>
		<g>
			<path class="st0" d="M243.6,282.5l-13.9-10.9l5.8-7.7l-4.7-36.4l-21.2-16.4l-80.9,10.4l16.5,128.7l85.1-10.9l17.6-22.8
				L243.6,282.5z M164.9,293.1l45.1-5.8l7.9,6.1l2.1,16.6l-6.1,7.9l-45.1,5.8L164.9,293.1z M199.2,236l6.3,4.9l2.4,18.4l-5,6.5
				l-40.7,5.2l-3.8-29.7L199.2,236z"/>
			<polygon class="st0" points="368.7,307.4 305.2,310.2 300.4,204 273.2,205.3 279,334.9 368.5,330.9 369.8,330.9 			"/>
			<path class="st0" d="M482.3,204.3l-66.4-2.6l-22.5,20.8L390,309l20.8,22.5l66.4,2.6l22.5-20.8l3.4-86.4L482.3,204.3z M464,309.8
				l-38.2-1.5l-8.2-8.8l2.5-65.4l8.8-8.2l38.2,1.5l8.2,8.8l-2.5,65.4L464,309.8z"/>
			<polygon class="st0" points="652.1,222.7 621.6,218.7 584.3,267.6 567.2,265.4 574,212.6 546.9,209.1 530.5,336.5 530.3,337.8 
				557.4,341.3 564.1,288.9 581.1,291 607.5,347.8 638.6,351.8 606.1,282 			"/>
		</g>
	</g>
</g>
</svg>
